<svg width="80" height="80" viewBox="0 0 80 80" fill="none" xmlns="http://www.w3.org/2000/svg">
<g clip-path="url(#clip0_0_589)">
<path fill-rule="evenodd" clip-rule="evenodd" d="M42.25 0C36.4372 0 31.5296 3.22495 28.8385 5.40344C28.8236 5.41554 28.8089 5.42797 28.7945 5.44074C27.7857 6.3375 26.6507 7.02395 25.3622 7.61C21.745 9.22111 21.1854 13.1356 21.5376 16.6255C21.8748 19.9669 23.0832 23.5355 24.1195 26.0628C22.4319 26.8066 21.25 28.4138 21.25 30.375C21.25 32.5979 22.8625 34.4671 25.0353 34.9835C25.592 37.5848 26.8715 39.9225 28.5769 41.8389C26.7226 42.8999 25.1981 44.4729 24.2373 46.3879C14.0575 47.5725 6.25 56.2386 6.25 66.625C6.25 74.0696 12.184 79.9874 19.6019 80.1248C19.6096 80.1249 19.6173 80.125 19.625 80.125H60.375C67.8237 80.125 73.75 74.057 73.75 66.75C73.75 56.3522 65.9973 47.8663 56.0668 46.5518C55.0854 44.5465 53.4832 42.8936 51.5242 41.8271C53.1977 39.8866 54.3796 37.5677 54.9621 35.0369C57.2614 34.6101 59 32.6832 59 30.375C59 28.4352 57.8438 26.8417 56.1855 26.0875C56.8123 24.8764 57.3465 23.6505 57.6945 22.4933C60.2319 14.4661 56.9078 5.43134 49.309 1.63197C49.2921 1.6235 49.275 1.61542 49.2577 1.60774C46.8783 0.550246 44.5804 0 42.25 0ZM55.3509 32.2697C56.0678 31.8497 56.5 31.1142 56.5 30.375C56.5 29.6013 56.0823 28.8848 55.375 28.4744V31.3751C55.375 31.675 55.3669 31.9733 55.3509 32.2697ZM52.875 27.9029C52.4974 27.7839 52.1825 27.5715 51.949 27.356C51.5898 27.0244 51.291 26.568 51.1623 26.0532C51.1543 26.0209 51.1475 25.9883 51.142 25.9555L50.6522 23.0164C50.5965 22.8325 50.4728 22.6649 50.3197 22.559C50.1632 22.4506 50.0281 22.4377 49.9282 22.4627C49.9034 22.4689 49.8784 22.4743 49.8532 22.479C40.7859 24.1629 34.3847 21.9649 31.191 20.368C31.0874 20.3162 30.8998 20.2976 30.6868 20.3974C30.4774 20.4956 30.3727 20.6475 30.3452 20.7712C30.3429 20.7819 30.3403 20.7925 30.3377 20.8032L28.9627 26.3032C28.7431 27.1816 28.0581 27.7869 27.25 28.0193V32.6251C27.25 32.9637 27.2542 33.0504 27.3001 33.1967C27.4266 33.392 27.5 33.6249 27.5 33.875C27.5 34.0097 27.4787 34.1395 27.4392 34.2611C27.9755 37.0034 29.5055 39.4593 31.5835 41.3185C31.6007 41.3339 31.6175 41.3498 31.6339 41.3662C32.0681 41.8004 32.6133 42.2353 33.1431 42.5532C33.1513 42.5581 33.1594 42.5631 33.1675 42.5682C35.3459 43.9441 37.9706 44.7386 40.6927 44.6264C42.7972 44.5202 44.8313 43.8211 46.5999 42.7846C46.7841 42.5213 47.0671 42.3322 47.3951 42.2712C47.5592 42.1456 47.7194 42.0082 47.9064 41.8478L47.9067 41.8476C48.0894 41.6908 48.2977 41.5121 48.5601 41.3013C51.2845 38.7889 52.875 35.2594 52.875 31.3751V27.9029ZM24.75 32.1751V28.5521C24.1188 28.9716 23.75 29.648 23.75 30.375C23.75 31.0614 24.1227 31.7448 24.75 32.1751ZM55.3027 21.7658C54.967 22.8849 54.3977 24.1533 53.6871 25.4631C53.6766 25.4763 53.6665 25.4876 53.6571 25.497L53.6541 25.5H53.6262C53.6155 25.4879 53.6055 25.4745 53.5972 25.4611C53.5955 25.4584 53.5941 25.456 53.5929 25.4538L53.108 22.5445C53.1025 22.5117 53.0957 22.4791 53.0877 22.4468C52.7116 20.9426 51.16 19.6049 49.3642 20.027C40.9491 21.5818 35.1117 19.5333 32.309 18.132C31.4126 17.6838 30.4127 17.7649 29.6257 18.1338C28.8399 18.5022 28.1359 19.2188 27.9089 20.2106L26.5889 25.4906C25.5567 23.0374 24.3436 19.5318 24.0249 16.3745C23.6898 13.0536 24.3795 10.7826 26.3827 9.89226L26.3923 9.88796C27.8432 9.22844 29.1991 8.4212 30.4331 7.32905C32.9949 5.25945 37.3267 2.5 42.25 2.5C44.1617 2.5 46.1056 2.94606 48.2162 3.88066C54.5971 7.08749 57.5127 14.7863 55.3083 21.7476C55.3064 21.7537 55.3045 21.7597 55.3027 21.7658ZM40.8124 47.1235C42.7863 47.0248 44.6728 46.5025 46.375 45.7187V47.8751C46.375 49.6433 45.6502 51.2071 44.4911 52.3662C43.332 53.5253 41.7682 54.2501 40 54.2501C36.4959 54.2501 33.7131 51.522 33.6271 48.0413C33.7058 47.8775 33.75 47.6939 33.75 47.5C33.75 47.3044 33.7051 47.1193 33.625 46.9545V45.6612C35.7995 46.6761 38.2546 47.2301 40.802 47.124L40.8124 47.1235ZM31.125 44.2098C30.8936 44.0407 30.6686 43.8619 30.4546 43.6783C29.1806 44.2742 28.0822 45.1582 27.2563 46.25H31.125V44.2098ZM49.6177 43.678C49.3885 43.873 49.1376 44.0836 48.875 44.2821V46.375H53.0428C52.1722 45.2028 50.9899 44.2638 49.6177 43.678ZM54.3049 48.8989C54.5133 49.6073 54.625 50.3543 54.625 51.1251V63.3864C52.0504 63.9571 50.125 66.2538 50.125 69.0001C50.125 72.1758 52.6993 74.7501 55.875 74.7501C59.0506 74.7501 61.625 72.1758 61.625 69.0001C61.625 66.2538 59.6996 63.9571 57.125 63.3864V51.1251C57.125 50.4791 57.0659 49.8473 56.9529 49.2341C65.0749 50.8876 71.25 58.0589 71.25 66.75C71.25 72.693 66.4263 77.625 60.375 77.625H19.6369C13.5601 77.5066 8.75 72.6766 8.75 66.625C8.75 57.9254 14.9923 50.6046 23.3254 49.053C23.194 49.7202 23.125 50.4125 23.125 51.1251V54.5816C21.0335 54.8555 19.0769 55.8114 17.5691 57.3192C15.764 59.1243 14.75 61.5724 14.75 64.1251V70.1251C14.75 71.6905 16.0596 73.0001 17.625 73.0001H18.75C19.4403 73.0001 20 72.4405 20 71.7501C20 71.0598 19.4403 70.5001 18.75 70.5001H17.625C17.5491 70.5001 17.4529 70.4665 17.3682 70.3819C17.2836 70.2972 17.25 70.201 17.25 70.1251V64.1251C17.25 62.2355 18.0007 60.4232 19.3368 59.087C20.673 57.7508 22.4853 57.0001 24.375 57.0001C26.2647 57.0001 28.0769 57.7508 29.4131 59.087C30.7493 60.4232 31.5 62.2355 31.5 64.1251V70.1251C31.5 70.201 31.4664 70.2972 31.3817 70.3819C31.2971 70.4665 31.2008 70.5001 31.125 70.5001H30.25C29.5596 70.5001 29 71.0598 29 71.7501C29 72.4405 29.5596 73.0001 30.25 73.0001H31.125C32.6903 73.0001 34 71.6905 34 70.1251V64.1251C34 61.5724 32.9859 59.1243 31.1809 57.3192C29.6731 55.8114 27.7164 54.8555 25.625 54.5816V51.1251C25.625 50.2992 25.7466 49.5068 25.9732 48.7616C26.1894 48.7539 26.4067 48.75 26.625 48.75H31.1666C31.5992 53.272 35.3551 56.7501 40 56.7501C42.4818 56.7501 44.668 55.7249 46.2589 54.134C47.6324 52.7604 48.5843 50.9432 48.8188 48.875H53.375C53.6868 48.875 53.9969 48.883 54.3049 48.8989ZM55.4052 65.7838C55.5503 65.8427 55.7088 65.8751 55.875 65.8751C56.0411 65.8751 56.1997 65.8427 56.3448 65.7838C57.9171 66.0115 59.125 67.3647 59.125 69.0001C59.125 70.7951 57.6699 72.2501 55.875 72.2501C54.08 72.2501 52.625 70.7951 52.625 69.0001C52.625 67.3647 53.8329 66.0114 55.4052 65.7838Z" fill="white"/>
</g>
<defs>
<clipPath id="clip0_0_589">
<rect width="80" height="80" fill="white"/>
</clipPath>
</defs>
</svg>
