<svg width="80" height="80" viewBox="0 0 80 80" fill="none" xmlns="http://www.w3.org/2000/svg">
<path d="M40.0001 77.9997C13.8545 77.9997 7.46973 74.7117 7.46973 61.2493C7.46973 51.2797 21.7585 43.4717 40.0001 43.4717C58.2417 43.4717 72.5305 51.2797 72.5305 61.2493C72.5305 74.7117 66.1465 77.9997 40.0001 77.9997ZM40.0001 47.0909C24.3281 47.0909 11.0889 53.5741 11.0889 61.2493C11.0889 70.1173 12.3169 74.3805 40.0001 74.3805C67.6833 74.3805 68.9113 70.1173 68.9113 61.2493C68.9113 53.5741 55.6713 47.0909 40.0001 47.0909Z" fill="white"/>
<path d="M40.0002 44.784C29.9994 44.784 21.2266 33.8944 21.2266 21.48C21.2266 10.192 29.1226 2 40.0002 2C50.8778 2 58.7738 10.192 58.7738 21.48C58.7738 33.8944 50.001 44.784 40.0002 44.784ZM40.0002 5.6192C31.0778 5.6192 24.8458 12.1408 24.8458 21.48C24.8458 31.7824 32.069 41.1656 40.0002 41.1656C47.9314 41.1656 55.1546 31.7824 55.1546 21.48C55.1546 12.1408 48.9226 5.6192 40.0002 5.6192Z" fill="white"/>
</svg>
