<svg width="80" height="80" viewBox="0 0 80 80" fill="none" xmlns="http://www.w3.org/2000/svg">
<path d="M76.453 40.082C76.2396 39.9294 75.9835 39.8478 75.7211 39.8487C75.4587 39.8497 75.2032 39.9332 74.9908 40.0873C74.3694 40.5389 73.3719 40.8167 72.3554 40.9469C76.1241 37.1727 77.9802 31.9469 77.631 25.9094C77.6144 25.6225 77.4996 25.3502 77.3057 25.1381C77.1118 24.9261 76.8508 24.7873 76.5666 24.7452C76.2824 24.7027 75.9922 24.7596 75.745 24.9063C75.4979 25.0529 75.3089 25.2803 75.2099 25.5502C74.9918 26.1431 73.8426 27.0286 72.5793 27.7441C73.5349 26.1709 74.3819 24.2584 74.8213 22.1488C75.5019 18.8798 75.4293 14.0314 71.2171 9.49672C71.058 9.32555 70.8541 9.20239 70.6286 9.14122C70.4031 9.08005 70.1649 9.08331 69.9412 9.15063C69.7174 9.21795 69.517 9.34664 69.3626 9.5221C69.2083 9.69755 69.1062 9.91275 69.068 10.1433C67.5636 19.2344 63.0291 21.0689 57.7785 23.1933C54.5536 24.498 51.2283 25.8448 48.413 28.8942C48.0729 28.7472 47.7149 28.6455 47.3482 28.5919L50.1976 25.7425C51.8932 24.0469 51.8932 21.2878 50.1974 19.592C48.7622 18.157 46.4799 17.9119 44.771 19.0087C44.6621 19.0784 44.5732 19.0867 44.4541 19.0373C44.3347 18.9878 44.2774 18.9192 44.2497 18.793C43.8165 16.8084 42.0293 15.3681 39.9997 15.3681C37.9707 15.3686 36.1836 16.8089 35.7505 18.793C35.7229 18.9195 35.6657 18.988 35.5468 19.037C35.4271 19.0867 35.3382 19.0789 35.2291 19.0087C33.5197 17.9117 31.2376 18.157 29.8026 19.592C28.1068 21.2878 28.1068 24.047 29.8026 25.7427L32.6519 28.5919C32.2852 28.6456 31.9271 28.7473 31.5869 28.8944C28.7716 25.8452 25.4463 24.4981 22.2216 23.1934C16.971 21.0691 12.4365 19.2345 10.9319 10.1433C10.8937 9.91273 10.7917 9.69751 10.6373 9.52203C10.483 9.34656 10.2826 9.21786 10.0588 9.15055C9.835 9.08324 9.59682 9.08 9.37129 9.14122C9.14576 9.20244 8.94191 9.32565 8.78287 9.49687C4.57068 14.0314 4.49802 18.88 5.17865 22.1489C5.61787 24.2586 6.4649 26.1711 7.42052 27.7442C6.1574 27.0288 5.00802 26.1433 4.7899 25.5503C4.69073 25.2807 4.50169 25.0534 4.25461 24.9068C4.00752 24.7602 3.71746 24.7031 3.43326 24.7453C3.14906 24.7875 2.88806 24.9262 2.69418 25.1383C2.50031 25.3503 2.38541 25.6227 2.3688 25.9095C2.01943 31.9472 3.87552 37.1727 7.64427 40.947C6.62771 40.8167 5.63037 40.5391 5.00896 40.0875C4.79665 39.9332 4.54117 39.8497 4.27873 39.8487C4.01629 39.8478 3.76021 39.9294 3.54678 40.0822C3.33335 40.2349 3.1734 40.4509 3.0896 40.6996C3.0058 40.9483 3.00241 41.2171 3.0799 41.4678C4.66974 46.6128 7.41084 49.7447 11.4599 51.0422C13.0711 51.5588 14.7627 51.747 16.5086 51.747C17.6968 51.747 18.9105 51.6592 20.1411 51.5287C17.4918 57.248 17.7035 63.3764 20.7932 68.5903C24.5222 74.8827 31.7052 78.7503 39.6119 78.75C39.741 78.75 39.8705 78.7491 39.9999 78.7469C40.1299 78.7491 40.2583 78.75 40.3879 78.75C48.294 78.7497 55.478 74.8822 59.2066 68.5903C62.2963 63.3764 62.508 57.248 59.8585 51.5287C61.0891 51.6592 62.3029 51.747 63.4911 51.747C65.2371 51.7469 66.9286 51.5586 68.5397 51.0422C72.5888 49.7445 75.3299 46.6127 76.9199 41.4678C76.9974 41.2171 76.994 40.9483 76.9102 40.6995C76.8264 40.4508 76.6665 40.2348 76.453 40.082ZM46.7266 34.5775H33.2727C32.2991 34.5775 31.5069 33.7855 31.5069 32.8117C31.5069 31.8383 32.299 31.0461 33.2727 31.0461H46.7266C47.7002 31.0461 48.4924 31.8381 48.4924 32.8119C48.4924 33.7855 47.7004 34.5775 46.7266 34.5775ZM31.5701 21.3598C32.1802 20.75 33.1511 20.6459 33.8786 21.1128C34.6733 21.6228 35.6296 21.7083 36.5026 21.3469C37.3751 20.9855 37.9911 20.2489 38.1926 19.3259C38.3769 18.4814 39.1369 17.8681 39.9996 17.868C40.8622 17.868 41.6224 18.4812 41.8068 19.3261C42.0083 20.2489 42.6243 20.9855 43.4968 21.3469C44.3691 21.7083 45.3257 21.6231 46.1207 21.1127C46.8479 20.6458 47.8188 20.7498 48.4291 21.3598C49.1501 22.0808 49.1501 23.2541 48.4291 23.9748L43.8577 28.5462H36.1413L31.5697 23.9748C30.849 23.2541 30.849 22.0808 31.5701 21.3598ZM12.2227 48.6614C9.66255 47.8409 7.78896 46.1092 6.44896 43.2869C8.23224 43.6522 10.1361 43.5892 11.2722 43.2831C11.5025 43.2211 11.7103 43.0945 11.8709 42.9183C12.0316 42.7421 12.1385 42.5236 12.179 42.2886C12.2195 42.0536 12.1919 41.8119 12.0996 41.592C12.0072 41.3722 11.8538 41.1833 11.6576 41.0478C7.62427 38.2609 5.32115 34.1747 4.89724 29.1175C6.90646 30.5414 9.59224 31.5927 11.0722 31.3953C11.307 31.3638 11.5279 31.2662 11.7093 31.114C11.8908 30.9617 12.0252 30.7611 12.097 30.5354C12.1688 30.3097 12.175 30.0682 12.1149 29.8391C12.0547 29.61 11.9308 29.4028 11.7574 29.2414C10.2993 27.8845 8.3424 25.0795 7.62615 21.6397C6.98865 18.5781 7.46427 15.7628 9.03959 13.2403C11.234 21.445 16.3355 23.5092 21.284 25.5112C24.348 26.7509 27.2568 27.9287 29.6811 30.5158C29.2407 31.2006 29.0068 31.9978 29.0074 32.812C29.0074 34.423 29.9052 35.828 31.2266 36.5536C26.8533 41.355 23.7501 45.3177 21.6055 48.837C18.2247 49.2759 14.978 49.5445 12.2227 48.6614ZM57.0558 67.3156C53.7194 72.9453 47.1907 76.3705 40.0208 76.2469C40.0068 76.2466 39.9927 76.2466 39.9786 76.2469C32.8085 76.3691 26.2801 72.9455 22.9436 67.3156C19.9818 62.3177 20.0601 56.5638 23.164 51.1136C25.3757 47.2305 28.8702 42.7611 34.1402 37.0777H45.8593C51.1293 42.7612 54.6238 47.2305 56.8354 51.1136C59.9394 56.5636 60.0176 62.3177 57.0558 67.3156ZM67.7768 48.6614C65.0213 49.5445 61.7744 49.2756 58.3941 48.8366C56.2496 45.3172 53.1463 41.3547 48.7733 36.5533C50.0947 35.8277 50.9926 34.4228 50.9926 32.8119C50.9933 31.9976 50.7593 31.2003 50.3188 30.5155C52.7433 27.9283 55.6519 26.7505 58.716 25.5109C63.6644 23.5089 68.766 21.4447 70.9602 13.24C72.5355 15.7625 73.0111 18.5778 72.3736 21.6394C71.6574 25.0794 69.7004 27.8844 68.2422 29.2411C68.0689 29.4024 67.9449 29.6097 67.8848 29.8388C67.8247 30.0679 67.8309 30.3093 67.9026 30.535C67.9744 30.7607 68.1089 30.9614 68.2903 31.1136C68.4717 31.2659 68.6927 31.3635 68.9274 31.395C70.408 31.5952 73.0932 30.5413 75.1024 29.117C74.6785 34.1744 72.3755 38.2608 68.3421 41.0475C68.1459 41.183 67.9926 41.3719 67.9002 41.5917C67.8079 41.8115 67.7803 42.0532 67.8208 42.2882C67.8613 42.5231 67.9681 42.7416 68.1287 42.9179C68.2893 43.0941 68.497 43.2207 68.7272 43.2828C69.8633 43.5888 71.7671 43.6523 73.5505 43.2866C72.2105 46.1092 70.3369 47.8409 67.7768 48.6614ZM46.3891 60.3316C46.549 61.6475 46.1952 62.8495 45.3665 63.808C44.4379 64.8816 42.9221 65.6131 41.1924 65.8495V66.9881C41.1924 67.3196 41.0607 67.6376 40.8263 67.872C40.5919 68.1064 40.2739 68.2381 39.9424 68.2381C39.6109 68.2381 39.2929 68.1064 39.0585 67.872C38.8241 67.6376 38.6924 67.3196 38.6924 66.9881V65.8305C36.0958 65.4119 34.0874 63.7311 33.4947 61.3542C33.455 61.1949 33.4471 61.0294 33.4713 60.867C33.4956 60.7047 33.5516 60.5487 33.6361 60.408C33.8069 60.1238 34.0835 59.9191 34.4052 59.8389C34.7269 59.7587 35.0673 59.8096 35.3514 59.9803C35.6356 60.1511 35.8403 60.4277 35.9205 60.7494C36.4094 62.7102 38.3429 63.4139 39.9321 63.4317L39.9722 63.432C40.0238 63.4328 40.0751 63.4317 40.1255 63.4305C41.5285 63.397 42.8435 62.9033 43.4755 62.1725C43.8407 61.7503 43.9819 61.2467 43.9074 60.6328C43.7855 59.6287 43.2033 58.4034 39.7544 57.837C35.163 57.0831 34.0926 54.728 34.003 52.8848C33.8791 50.3328 35.6576 48.1958 38.4285 47.5673C38.516 47.5476 38.6039 47.5295 38.6921 47.5131V46.3366C38.6921 46.005 38.8238 45.6871 39.0582 45.4527C39.2926 45.2183 39.6106 45.0866 39.9421 45.0866C40.2736 45.0866 40.5915 45.2183 40.826 45.4527C41.0604 45.6871 41.1921 46.005 41.1921 46.3366V47.5025C43.0996 47.835 44.956 48.9767 45.8985 51.2217C46.0241 51.5269 46.0239 51.8693 45.898 52.1743C45.7721 52.4794 45.5307 52.7222 45.2265 52.85C44.9222 52.9777 44.5798 52.98 44.2739 52.8563C43.968 52.7325 43.7234 52.4929 43.5935 52.1895C42.9088 50.5589 41.4415 49.8955 40.0219 49.8909C39.9781 49.8937 39.9342 49.8941 39.8904 49.8923C39.581 49.9002 39.2754 49.9391 38.9816 50.0056C37.731 50.2892 36.4224 51.1628 36.5002 52.7637C36.5269 53.3169 36.5982 54.7855 40.1596 55.3703C41.5797 55.6033 45.9013 56.3131 46.3891 60.3316ZM38.8418 9.93922V2.5C38.8418 2.16848 38.9735 1.85054 39.2079 1.61612C39.4423 1.3817 39.7603 1.25 40.0918 1.25C40.4233 1.25 40.7412 1.3817 40.9757 1.61612C41.2101 1.85054 41.3418 2.16848 41.3418 2.5V9.93906C41.3418 10.2706 41.2101 10.5885 40.9757 10.823C40.7413 11.0574 40.4234 11.1891 40.0919 11.1891C39.7603 11.1892 39.4424 11.0575 39.2079 10.8231C38.9735 10.5887 38.8418 10.2707 38.8418 9.93922ZM25.3488 6.73609C25.1857 6.44915 25.1426 6.10932 25.2291 5.79076C25.3156 5.47221 25.5246 5.2008 25.8104 5.03575C26.0963 4.87071 26.4358 4.82543 26.755 4.9098C27.0741 4.99417 27.3469 5.20134 27.5138 5.48609L31.2333 11.9284C31.3991 12.2156 31.444 12.5568 31.3582 12.877C31.2724 13.1972 31.0629 13.4703 30.7758 13.636C30.4886 13.8018 30.1474 13.8467 29.8272 13.7609C29.507 13.6751 29.2339 13.4656 29.0682 13.1784L25.3488 6.73609ZM48.9254 12.0205L52.6449 5.57812C52.8118 5.29337 53.0846 5.0862 53.4037 5.00183C53.7229 4.91746 54.0624 4.96274 54.3483 5.12778C54.6341 5.29283 54.8431 5.56424 54.9296 5.88279C55.0161 6.20135 54.973 6.54118 54.8099 6.82812L51.0904 13.2705C51.0083 13.4127 50.899 13.5373 50.7688 13.6373C50.6386 13.7372 50.4899 13.8106 50.3313 13.853C50.1727 13.8955 50.0073 13.9064 49.8446 13.8849C49.6818 13.8634 49.5249 13.8101 49.3827 13.728C49.0956 13.5622 48.8862 13.2891 48.8004 12.9689C48.7147 12.6487 48.7596 12.3075 48.9254 12.0205Z" fill="white"/>
</svg>
