<svg width="403" height="351" viewBox="0 0 403 351" fill="none" xmlns="http://www.w3.org/2000/svg">
<g clip-path="url(#clip0_0_578)">
<path d="M31.3641 251.369H32.1038C32.4736 251.369 32.7695 251.517 32.9175 251.813C33.2134 252.182 33.8791 253.808 32.0298 258.686L28.3312 279.381C27.2956 275.612 24.4107 271.473 21.8217 267.777C20.786 266.373 19.8984 265.043 19.0847 263.786C16.7915 260.091 17.0135 256.986 17.9011 255.36C18.4929 254.326 19.4545 253.734 20.5641 253.734C20.5641 253.734 20.86 253.734 21.0819 253.956C21.3038 254.252 21.3038 254.695 21.1559 255.36L20.786 256.173L23.0052 256.839L25.5942 247.378L23.523 246.935L23.3751 247.6C23.1532 248.413 22.0436 248.635 20.86 248.782C20.6381 248.782 20.4902 248.782 20.4162 248.856C18.345 249.152 16.4957 250.556 15.534 252.552C14.0546 255.582 14.4244 259.573 16.6436 263.564C16.8655 264.008 17.0874 264.377 17.3094 264.747C18.345 267.112 17.4573 269.995 16.8655 271.842L13.9066 279.455C12.871 275.686 9.98611 271.547 7.39709 267.851C6.36148 266.447 5.47382 265.117 4.66012 263.86C2.36699 260.165 2.5889 257.06 3.47657 255.434C4.06835 254.4 5.02998 253.808 6.13957 253.808C6.13957 253.808 6.50943 253.808 6.65737 254.03C6.87929 254.326 6.87929 254.843 6.65737 255.508V255.582V256.321L8.58064 256.912L11.1697 247.452L9.09845 247.008L8.95051 247.674C8.72859 248.635 7.1012 248.782 6.36148 248.856C6.13957 248.856 5.99162 248.856 5.91765 248.93C3.69849 249.3 1.92316 250.704 0.961518 252.921C-0.517924 256.247 0.147825 260.682 2.95876 265.043C3.69849 266.225 4.66012 267.556 5.62176 268.96C8.28476 272.803 11.3176 277.09 12.0573 280.564C12.3532 282.19 12.0573 282.707 11.9834 282.781C11.9834 282.855 11.8354 282.929 11.5395 282.929C11.4656 282.929 11.3916 282.929 11.3176 282.929L10.8738 282.855L9.91214 284.481L12.2053 285.811L15.3861 287.585L21.6737 271.103C23.8929 274.355 25.9641 277.681 26.5559 280.49C26.7778 282.116 26.5559 282.633 26.4079 282.707C26.4079 282.781 26.26 282.855 25.9641 282.855C25.8901 282.855 25.8161 282.855 25.7422 282.855L25.2983 282.781L24.3367 284.407L26.7038 285.737L29.8106 287.511L36.5421 259.13C38.6133 253.66 39.6489 251.443 41.4982 251.443H42.2379V249.3H31.3641V251.369Z" fill="white"/>
<path d="M55.2571 262.086C55.2571 257.873 56.5146 255.213 58.3639 255.213H60.0653C64.9474 255.213 69.2378 258.095 70.2734 262.012L70.4213 262.604L72.2706 262.16L69.9035 253.291H47.7119V255.213H48.3777C50.227 255.213 51.4845 257.947 51.4845 262.086C51.4845 264.451 52.2982 266.373 53.7037 267.556C51.8544 268.517 51.4845 270.734 51.4845 275.316V277.903C51.4845 282.042 50.227 284.703 48.3777 284.703H47.7119V286.625H69.9775L72.3446 277.681L70.4953 277.238L70.2734 277.903C69.2378 281.82 64.9474 284.703 60.0653 284.703H59.7694C56.2187 284.703 55.2571 283.151 55.2571 277.903V275.316C55.2571 274.429 55.2571 273.616 55.2571 272.951C55.1831 269.034 55.2571 268.96 57.1803 268.886H57.4023C62.4324 268.886 62.7283 270.438 62.7283 272.951V273.616H64.6515V264.156H62.7283V264.821C62.7283 266.225 62.7282 267.038 57.4762 267.038H57.4023C56.7365 267.038 56.2927 266.891 55.9228 266.595C55.1831 265.856 55.1831 264.23 55.2571 262.678V262.086Z" fill="white"/>
<path d="M100.454 277.902C99.3445 281.894 95.0541 284.776 90.1719 284.776H89.8761C86.3254 284.776 85.3638 283.224 85.3638 277.902V262.086C85.3638 257.947 86.6213 255.286 88.4706 255.286H89.1363V253.364H77.8186V255.286H78.4844C80.4076 255.286 81.5912 257.947 81.5912 262.086V277.902C81.5912 282.115 80.3337 284.776 78.4844 284.776H77.8186V286.698H100.084L102.525 277.829L100.676 277.237L100.454 277.902Z" fill="white"/>
<path d="M130.709 277.902C129.599 281.894 125.309 284.776 120.427 284.776H120.131C116.58 284.776 115.618 283.224 115.618 277.902V262.086C115.618 257.947 116.876 255.286 118.725 255.286H119.391V253.364H108.073V255.286H108.739C110.662 255.286 111.846 257.947 111.846 262.086V277.902C111.846 282.115 110.588 284.776 108.739 284.776H108.073V286.698H130.339L132.78 277.829L130.931 277.237L130.709 277.902Z" fill="white"/>
<path d="M155.415 255.212H156.081C158.448 255.212 160.15 255.212 160.15 262.012V276.424C158.448 272.877 155.933 270.659 153.418 268.442C150.311 265.781 147.426 263.194 146.317 258.39V258.316C146.095 257.06 146.169 256.099 146.539 255.582C146.835 255.212 147.278 255.064 148.018 255.064H148.684V253.143H137.366V255.064H138.032C140.399 255.064 142.1 255.064 142.1 261.864V277.903C142.1 284.776 140.399 284.776 138.032 284.776H137.366V286.698H148.684V284.776H147.944C145.577 284.776 143.876 284.776 143.876 277.903V263.12C145.503 266.446 147.944 268.516 150.385 270.585C153.714 273.468 156.895 276.203 157.93 281.894C158.078 283.002 158.004 283.815 157.561 284.259C157.265 284.628 156.747 284.776 156.081 284.776H155.415V286.698H166.733V284.776H166.067C163.774 284.776 161.999 284.776 161.999 277.903V262.086C161.999 255.286 163.7 255.286 166.067 255.286H166.733V253.364H155.415V255.212Z" fill="white"/>
<path d="M182.267 262.086C182.267 257.873 183.525 255.213 185.374 255.213H187.075C191.958 255.213 196.248 258.095 197.284 262.012L197.432 262.604L199.281 262.16L196.914 253.291H174.648V255.213H175.314C177.163 255.213 178.421 257.947 178.421 262.086C178.421 264.451 179.234 266.373 180.64 267.556C178.791 268.517 178.421 270.734 178.421 275.316V277.903C178.421 282.042 177.163 284.703 175.314 284.703H174.648V286.625H196.914L199.281 277.681L197.432 277.238L197.284 277.829C196.248 281.746 191.958 284.629 187.075 284.629H186.78C183.229 284.629 182.267 283.077 182.267 277.829V275.242C182.267 274.355 182.267 273.542 182.267 272.877C182.193 268.96 182.267 268.886 184.191 268.812H184.413C189.443 268.812 189.738 270.364 189.738 272.877V273.542H191.662V264.082H189.738V264.747C189.738 266.151 189.738 266.964 184.486 266.964H184.413C183.747 266.964 183.303 266.817 182.933 266.521C182.193 265.782 182.193 264.156 182.267 262.604V262.086Z" fill="white"/>
<path d="M218.513 266.964C214.445 265.707 210.598 264.599 209.711 260.238C209.341 258.464 209.637 256.912 210.524 255.803C211.634 254.473 213.483 253.808 215.998 253.808C221.694 253.808 223.839 258.316 225.023 262.234L225.171 262.825L227.02 262.381L224.283 251.295L222.656 251.812L222.582 252.182C222.434 252.699 222.36 252.995 222.286 253.143C222.138 253.069 221.99 252.995 221.842 252.921C220.955 252.551 219.179 251.812 215.998 251.812C213.187 251.812 210.672 252.773 208.971 254.547C207.27 256.247 206.456 258.612 206.53 261.347C206.752 266.816 209.637 269.329 213.114 270.733C210.377 271.694 208.305 273.764 207.714 276.203V276.277V276.498L206.9 280.785L205.79 286.846L207.714 287.141L207.861 286.55C208.157 284.85 208.601 284.85 208.897 284.85C209.341 284.85 210.081 285.072 210.894 285.368C212.522 285.959 214.741 286.772 217.848 286.772C220.955 286.772 223.544 285.811 225.393 283.889C227.242 281.968 228.204 279.233 228.13 275.981C227.908 269.772 223.1 268.294 218.513 266.964ZM210.155 275.537C211.486 273.025 214.223 272.212 216.294 272.212C216.886 272.212 217.404 272.285 217.922 272.433C221.694 273.542 224.505 274.798 224.135 279.307C223.765 282.929 221.546 284.85 217.774 284.85C214.815 284.85 212.226 283.446 210.746 281.007C209.563 279.085 209.415 277.09 210.155 275.537Z" fill="white"/>
<path d="M248.546 266.964C244.478 265.707 240.631 264.599 239.744 260.238C239.374 258.464 239.67 256.912 240.557 255.803C241.667 254.473 243.516 253.808 246.031 253.808C251.727 253.808 253.872 258.316 255.056 262.234L255.204 262.825L257.053 262.381L254.316 251.295L252.689 251.812L252.615 252.182C252.467 252.699 252.393 252.995 252.319 253.143C252.171 253.069 252.023 252.995 251.875 252.921C250.987 252.551 249.212 251.812 246.031 251.812C243.22 251.812 240.705 252.773 239.004 254.547C237.302 256.247 236.489 258.612 236.563 261.347C236.785 266.816 239.67 269.329 243.146 270.733C240.409 271.694 238.338 273.764 237.746 276.203V276.277V276.498L236.933 280.785L235.823 286.846L237.746 287.141L237.894 286.55C238.19 284.85 238.634 284.85 238.93 284.85C239.374 284.85 240.113 285.072 240.927 285.368C242.554 285.959 244.774 286.772 247.88 286.772C250.987 286.772 253.576 285.811 255.426 283.889C257.275 281.968 258.237 279.233 258.163 275.981C257.941 269.772 253.132 268.294 248.546 266.964ZM240.187 275.537C241.519 273.025 244.256 272.212 246.327 272.212C246.919 272.212 247.437 272.285 247.954 272.433C251.727 273.542 254.538 274.798 254.168 279.307C253.798 282.929 251.579 284.85 247.806 284.85C244.848 284.85 242.259 283.446 240.779 281.007C239.596 279.085 239.448 277.09 240.187 275.537Z" fill="white"/>
<path d="M288.343 247.008C287.825 247.008 287.308 247.008 286.79 247.008H274.141V249.299H274.88C277.1 249.299 278.579 252.477 278.579 257.355V276.128C278.579 281.08 277.1 284.259 274.88 284.259H274.141V286.55H287.53V284.259H286.716C284.497 284.259 283.017 281.007 283.017 276.128V272.729C283.017 271.029 286.716 269.698 290.267 268.442C295.814 266.446 302.694 263.933 302.694 258.094C302.768 253.068 300.253 247.008 288.343 247.008ZM283.091 257.503C283.091 252.625 284.571 249.447 286.79 249.447C294.187 249.447 297.59 252.255 297.59 258.168C297.59 261.79 293.004 264.007 288.565 266.151C286.494 267.111 284.571 268.072 283.091 269.181V257.503Z" fill="white"/>
<path d="M327.474 277.829L317.636 252.108L314.825 253.734L312.68 254.991L313.568 256.469L314.011 256.395C314.085 256.395 314.159 256.395 314.233 256.395C314.529 256.395 314.603 256.469 314.603 256.543C314.677 256.691 314.899 257.06 314.751 258.465C314.011 261.717 311.275 265.634 308.833 269.108C307.946 270.29 307.132 271.473 306.466 272.508C303.803 276.794 303.286 280.933 304.987 284.038C306.096 285.959 307.946 287.142 310.091 287.142C310.979 287.142 311.792 286.92 312.68 286.551C315.787 285.146 316.379 281.229 316.822 277.829C317.266 274.503 317.71 272.434 319.337 272.286C319.411 272.286 319.411 272.286 319.485 272.286C320.743 272.286 321.927 273.69 322.962 276.351L323.628 278.273C325.329 282.559 324.663 284.038 324.442 284.407C324.294 284.629 323.998 284.777 323.702 284.777H323.036V286.698H332.726V284.777H332.061C330.359 284.703 329.398 282.707 327.474 277.829ZM310.535 269.995C312.902 266.595 315.491 262.899 316.453 259.426L320.743 270.586C320.299 270.438 319.855 270.364 319.411 270.364C319.337 270.364 319.19 270.364 319.116 270.364C315.935 270.66 315.195 273.616 314.529 276.351C313.938 278.79 313.346 281.303 311.127 282.264C310.535 282.559 309.943 282.633 309.425 282.633C308.39 282.633 307.502 282.116 306.984 281.155C306.17 279.677 306.023 276.868 308.094 273.542C308.759 272.508 309.647 271.325 310.535 269.995Z" fill="white"/>
<path d="M359.578 275.464L358.395 273.468V273.764C357.063 271.916 355.88 270.955 354.696 270.586C355.14 270.438 355.584 270.29 356.028 270.142C359.578 269.034 363.203 267.851 363.203 262.603C363.203 258.317 361.058 253.217 350.924 253.217C350.48 253.217 350.036 253.217 349.592 253.217H338.94V255.138H339.606C341.529 255.138 342.713 257.799 342.713 261.938V277.903C342.713 282.116 341.455 284.776 339.606 284.776H338.94V286.698H350.258V284.776H349.592C347.743 284.776 346.485 282.042 346.485 277.903V262.086C346.485 257.947 347.743 255.286 349.592 255.286C355.806 255.286 358.691 257.651 358.691 262.677C358.691 266.225 356.767 267.112 353.883 268.442C352.033 269.329 349.962 270.29 348.113 272.138C347.225 273.025 345.746 274.503 347.077 275.981C347.521 276.499 348.039 276.646 348.335 276.646C349.296 276.646 350.184 275.759 350.85 275.094L352.551 273.32C352.699 273.173 353.069 272.803 353.143 272.803C353.735 272.877 355.584 276.203 356.398 277.607L357.729 279.825C359.8 283.298 359.726 284.333 359.578 284.555C359.578 284.629 359.43 284.776 358.839 284.85H356.62V286.772H367.937V284.998L367.493 284.85C366.31 284.481 363.055 281.303 359.578 275.464ZM350.85 272.36C350.554 272.655 350.406 272.729 350.258 272.803C350.48 272.655 350.628 272.507 350.85 272.36Z" fill="white"/>
<path d="M402.556 284.776C401.447 284.48 398.34 281.598 394.641 275.463L393.605 273.69C391.016 269.255 388.945 267.333 387.096 267.333C386.134 267.333 385.247 267.851 384.433 268.812L383.989 269.255C383.767 269.477 383.619 269.551 383.471 269.625C383.545 269.551 383.619 269.403 383.767 269.255L393.014 259.647C394.937 257.651 397.526 255.286 400.559 255.286H401.225V253.364H389.907V255.286H390.573C392.718 255.286 393.014 255.729 393.014 255.803C393.088 255.951 393.236 256.69 390.795 259.129L381.474 268.959C381.178 269.181 380.882 269.551 380.586 269.92V262.16C380.586 258.021 381.844 255.36 383.693 255.36H384.359V253.438H372.819V255.36H373.485C375.408 255.36 376.592 258.021 376.592 262.16V277.902C376.592 282.115 375.334 284.776 373.485 284.776H372.819V286.698H384.137V284.776H383.471C381.622 284.776 380.364 282.041 380.364 277.902V272.877C380.734 273.172 381.104 273.394 381.548 273.394C382.436 273.394 383.249 272.655 383.915 271.99L384.063 271.842L385.691 270.068C385.838 269.92 386.208 269.551 386.282 269.551C386.874 269.625 388.797 273.024 389.463 274.355L390.795 276.572C394.049 282.041 393.532 283.889 393.31 284.259C393.236 284.407 393.014 284.776 392.274 284.776H391.608V286.698H402.926V284.924L402.556 284.776Z" fill="white"/>
<path d="M4.88225 234.443C5.47403 234.443 6.13978 234.296 6.73155 234C9.02469 232.965 9.39455 230.157 9.76441 227.718C10.1343 225.278 10.4302 223.726 11.6137 223.652C11.6877 223.652 11.6877 223.652 11.7617 223.652C12.6493 223.652 13.611 224.687 14.3507 226.609L14.8685 228.013C16.052 231.191 15.6082 232.226 15.4603 232.522C15.3123 232.743 15.1644 232.817 14.8685 232.817H14.4247V234.148H21.452V232.817H21.0082C19.7506 232.817 19.0849 231.339 17.6794 227.791L10.5781 209.166L8.58086 210.349L7.02744 211.235L7.61922 212.27H7.91511C7.98908 212.27 7.98908 212.27 8.06305 212.27C8.28497 212.27 8.35894 212.344 8.35894 212.344C8.43291 212.418 8.58085 212.788 8.43291 213.748C7.91511 216.114 5.91786 218.996 4.14253 221.509C3.55075 222.396 2.95898 223.209 2.44117 224.022C0.517897 227.126 0.148036 230.157 1.33159 232.374C1.99734 233.63 3.40281 234.443 4.88225 234.443ZM5.25211 222.026C7.02744 219.513 8.95072 216.779 9.54249 214.266L12.7233 222.544C12.4274 222.396 12.0575 222.322 11.6877 222.322C11.6137 222.322 11.5397 222.322 11.4658 222.322C9.17263 222.544 8.65483 224.613 8.13702 226.683C7.69319 228.457 7.24936 230.304 5.62197 231.043C5.17814 231.265 4.73431 231.339 4.36445 231.339C3.62473 231.339 2.95898 230.97 2.58912 230.23C1.99734 229.196 1.84939 227.052 3.40281 224.687C3.99459 223.8 4.58636 222.913 5.25211 222.026Z" fill="white"/>
<path d="M63.3201 210.718H63.7639C65.5393 210.718 66.7968 210.718 66.7968 215.818V226.609C65.5393 223.874 63.616 222.174 61.6927 220.548C59.3996 218.553 57.2544 216.631 56.3667 213.009V212.935C56.1448 211.975 56.2188 211.235 56.5147 210.866C56.7366 210.57 57.1064 210.496 57.6242 210.496H58.0681V209.166H49.8572V210.57H50.301C52.0763 210.57 53.3339 210.57 53.3339 215.67V227.57C53.3339 232.743 52.0024 232.743 50.301 232.743H49.8572V234.074H58.216V232.743H57.7722C56.0708 232.743 54.7393 232.743 54.7393 227.57V216.409C55.9229 218.922 57.7722 220.548 59.6215 222.1C62.1365 224.244 64.4297 226.313 65.2434 230.526C65.3913 231.339 65.2434 231.93 64.9475 232.3C64.7256 232.596 64.3557 232.669 63.8379 232.669H63.3941V234H71.7529V232.669H71.3091C69.6077 232.669 68.2762 232.669 68.2762 227.496V215.818C68.2762 210.718 69.5338 210.718 71.3091 210.718H71.7529V209.314H63.3201V210.718Z" fill="white"/>
<path d="M109.553 234.074C116.136 233.705 121.388 228.235 121.388 221.657C121.388 214.931 115.914 209.314 109.109 209.24H99.7144V210.571H100.158C101.564 210.571 102.525 212.64 102.525 215.744V227.57C102.525 230.674 101.564 232.744 100.158 232.744H99.7144V234.148H109.109L109.553 234.074ZM109.109 232.67H107.703C106.298 232.67 105.336 230.674 105.336 227.496V215.67C105.336 212.492 106.298 210.497 107.703 210.497H109.109C114.213 210.645 117.911 215.301 117.911 221.583C117.911 227.94 114.213 232.596 109.109 232.67Z" fill="white"/>
<path d="M164.81 227.644L157.708 209.019L155.711 210.201L154.158 211.088L154.75 212.123H155.045C155.119 212.123 155.119 212.123 155.193 212.123C155.415 212.123 155.489 212.197 155.489 212.197C155.563 212.271 155.711 212.64 155.563 213.601C155.045 215.966 153.048 218.849 151.273 221.362C150.681 222.249 150.089 223.062 149.572 223.875C147.648 226.979 147.278 230.009 148.462 232.226C149.276 233.631 150.607 234.444 152.161 234.444C152.752 234.444 153.418 234.296 154.01 234C156.303 232.966 156.673 230.157 157.043 227.718C157.413 225.279 157.708 223.727 158.892 223.653C158.966 223.653 158.966 223.653 159.04 223.653C159.928 223.653 160.889 224.688 161.629 226.609L162.147 228.014C163.33 231.192 162.887 232.226 162.739 232.522C162.591 232.744 162.443 232.818 162.147 232.818H161.703V234.148H168.73V232.818H168.286C166.881 232.744 166.215 231.266 164.81 227.644ZM152.53 222.027C154.306 219.514 156.229 216.779 156.821 214.266L160.002 222.544C159.706 222.396 159.336 222.322 158.966 222.322C158.892 222.322 158.818 222.322 158.744 222.322C156.451 222.544 155.933 224.614 155.415 226.683C154.972 228.457 154.528 230.305 152.974 231.044C152.53 231.266 152.087 231.339 151.717 231.339C150.977 231.339 150.311 230.97 149.941 230.231C149.35 229.196 149.202 227.053 150.755 224.688C151.273 223.801 151.865 222.914 152.53 222.027Z" fill="white"/>
<path d="M214.963 227.57L213.632 227.201L213.484 227.644C212.67 230.601 209.415 232.818 205.79 232.818H205.643C202.684 232.818 202.24 231.192 202.24 227.644V215.819C202.24 212.714 203.127 210.719 204.607 210.719H205.051V209.314H196.692V210.719H197.136C198.541 210.719 199.503 212.714 199.503 215.819V227.644C199.503 230.748 198.615 232.818 197.136 232.818H196.692V234.148H213.262L214.963 227.57Z" fill="white"/>
<path d="M261.121 215.818C261.121 210.792 262.453 210.792 264.08 210.792H264.524V209.462H256.387V210.792H256.831C258.458 210.792 259.79 210.792 259.79 215.818V224.54C259.79 224.614 259.864 228.605 257.719 230.822C256.831 231.783 255.574 232.226 254.094 232.226C249.804 232.226 247.732 229.713 247.732 224.54V223.283C247.732 218.257 251.431 215.005 253.65 213.01C254.982 211.827 255.721 211.162 255.426 210.423C255.13 209.684 253.872 209.462 250.026 209.462H242.333V210.792H242.776C244.182 210.792 245.069 212.714 245.069 215.818V216.262H246.401V215.818C246.401 211.014 247.659 210.792 250.026 210.792C251.209 210.792 252.171 210.792 252.763 210.792C252.689 210.792 252.689 210.866 252.615 210.866C250.395 212.197 245.291 215.301 244.996 222.84H244.922V224.54C244.922 228.161 245.957 234.222 253.058 234.222C256.757 234.222 261.047 231.709 261.047 224.54V215.818H261.121Z" fill="white"/>
<path d="M294.335 226.535V226.757L293.743 229.861L292.929 234.221L294.261 234.443L294.335 234C294.557 232.743 294.927 232.743 295.075 232.743C295.444 232.743 295.888 232.891 296.554 233.113C297.738 233.556 299.365 234.148 301.584 234.148C303.803 234.148 305.727 233.408 306.984 232.078C308.316 230.674 309.055 228.752 308.981 226.387C308.833 221.878 305.431 220.844 302.102 219.883C299.143 218.996 296.332 218.109 295.666 214.931C295.445 213.6 295.592 212.492 296.258 211.679C297.072 210.718 298.403 210.201 300.253 210.201C304.395 210.201 305.949 213.527 306.836 216.335L306.984 216.705L308.242 216.409L306.318 208.427L305.209 208.796L305.135 209.018C304.987 209.461 304.913 209.609 304.913 209.757C304.839 209.757 304.691 209.683 304.543 209.609C303.877 209.314 302.62 208.796 300.327 208.796C298.255 208.796 296.48 209.535 295.223 210.792C294.039 212.048 293.373 213.748 293.447 215.67C293.595 219.661 295.74 221.435 298.329 222.47C296.332 223.209 294.779 224.687 294.335 226.535ZM300.549 223.504C300.992 223.504 301.362 223.578 301.732 223.652C304.469 224.465 306.54 225.352 306.244 228.678C305.949 231.339 304.321 232.743 301.584 232.743C299.439 232.743 297.516 231.709 296.406 229.935C295.592 228.604 295.445 227.126 296.036 225.944C296.998 224.17 298.995 223.504 300.549 223.504Z" fill="white"/>
<path d="M352.847 232.669H352.403C350.998 232.669 350.036 230.674 350.036 227.496V215.67C350.036 212.566 350.998 210.496 352.403 210.496H352.847V209.166H344.414V210.496H344.858C346.263 210.496 347.225 212.492 347.225 215.67V227.496C347.225 230.6 346.263 232.669 344.858 232.669H344.414V234.074H352.847V232.669Z" fill="white"/>
<path d="M385.765 234.443C386.356 234.443 387.022 234.296 387.614 234C389.907 232.965 390.277 230.157 390.647 227.718C391.017 225.278 391.312 223.726 392.496 223.652C392.57 223.652 392.57 223.652 392.644 223.652C393.532 223.652 394.493 224.687 395.233 226.609L395.751 228.013C396.934 231.191 396.491 232.226 396.343 232.522C396.195 232.743 396.047 232.817 395.751 232.817H395.307V234.148H402.334V232.817H401.89C400.633 232.817 399.967 231.339 398.562 227.791L391.46 209.166L389.463 210.349L387.91 211.235L388.502 212.27H388.797C388.871 212.27 388.871 212.27 388.945 212.27C389.167 212.27 389.241 212.344 389.241 212.344C389.315 212.418 389.463 212.788 389.315 213.748C388.797 216.114 386.8 218.996 385.025 221.509C384.433 222.396 383.841 223.209 383.323 224.022C381.4 227.126 381.03 230.157 382.214 232.374C382.88 233.63 384.211 234.443 385.765 234.443ZM386.06 222.026C387.836 219.513 389.759 216.779 390.351 214.266L393.532 222.47C393.236 222.322 392.866 222.248 392.496 222.248C392.422 222.248 392.348 222.248 392.274 222.248C389.981 222.47 389.463 224.539 388.945 226.609C388.502 228.383 388.058 230.23 386.504 230.97C386.06 231.191 385.617 231.265 385.247 231.265C384.507 231.265 383.841 230.896 383.471 230.157C382.88 229.122 382.732 226.978 384.285 224.613C384.803 223.8 385.469 222.913 386.06 222.026Z" fill="white"/>
<path d="M212.522 177.385H190.478C147.5 177.385 112.511 142.425 112.511 99.4833V77.9015C112.511 34.9596 147.5 0 190.478 0H212.522C255.5 0 290.488 34.9596 290.488 77.9015V99.4833C290.488 142.425 255.574 177.385 212.522 177.385ZM190.478 6.13456C150.903 6.13456 118.651 38.3594 118.651 77.9015V99.4833C118.651 139.025 150.903 171.25 190.478 171.25H212.522C252.097 171.25 284.349 139.025 284.349 99.4833V77.9015C284.349 38.3594 252.097 6.13456 212.522 6.13456H190.478Z" fill="white"/>
<path d="M270.368 71.9146C269.628 70.2886 267.113 70.0669 265.634 69.7712C263.045 69.18 260.308 69.0321 257.645 69.18C252.319 69.4756 247.067 71.1016 242.481 73.6885C233.974 78.4927 227.464 86.4011 222.804 94.9747C218.144 103.548 215.111 112.935 212.078 122.248C212.448 98.0789 212.448 73.9102 212.078 49.8155C212.004 46.3417 212.374 42.0549 215.407 40.4289C216.368 39.9115 217.478 39.7637 218.514 39.6158C225.097 38.8028 231.829 39.3941 238.19 41.2419C240.483 41.9071 242.924 43.0157 243.812 45.1591C244.848 47.6721 243.442 50.4807 241.741 52.5501C237.598 57.576 231.681 60.6803 226.651 64.8192C221.62 68.9582 217.182 74.871 217.848 81.3012C217.922 82.1143 218.292 83.149 219.105 83.2968C219.993 83.5186 220.733 82.6316 221.325 81.8925C224.875 76.9405 230.275 73.6146 235.527 70.5103C240.779 67.4061 246.253 64.3019 250.174 59.6455C254.094 54.9892 256.313 48.2633 253.946 42.6462C252.023 37.9159 247.363 34.8117 242.407 33.4813C237.524 32.1509 232.346 32.2987 227.242 32.5205L207.492 33.2596C205.347 33.3335 200.908 32.4465 200.464 34.9595C200.021 37.5464 201.722 41.7592 202.092 44.42C203.941 57.3543 204.237 70.5103 204.533 83.5925C205.051 106.505 205.568 129.417 206.086 152.329C206.086 152.92 206.16 153.659 206.678 154.029C207.418 154.546 208.379 153.807 208.971 153.142C210.821 150.777 211.93 147.894 213.04 145.086L223.766 116.852C226.429 109.757 229.166 102.661 233.012 96.1572C236.859 89.6531 241.963 83.7403 248.546 79.9709C253.872 76.9405 260.012 75.3884 266.152 75.0928C267.557 74.7971 271.478 74.5015 270.368 71.9146Z" fill="white"/>
<path d="M174.056 67.9233C180.714 73.0231 192.254 74.2057 195.582 82.6315C195.952 83.9619 198.097 83.9619 198.467 82.7054C200.76 75.61 194.251 69.032 188.999 65.4843C182.933 61.3453 175.684 58.3889 170.876 52.6978C167.399 48.4849 167.695 43.5329 165.846 38.7288C165.402 37.6201 164.81 35.6984 163.404 36.5114C162.147 37.2506 162.221 40.9461 162.221 42.1286C162.147 45.3807 162.517 48.7066 163.33 51.8848C164.884 58.1672 168.139 64.6713 174.056 67.9233Z" fill="white"/>
<path d="M199.799 119.957C199.873 81.154 191.884 105.027 193.585 122.913C189.369 114.488 186.928 105.323 182.711 96.8969C177.459 86.4016 167.547 76.4237 156.007 73.0977C151.273 71.7674 146.169 71.3239 141.213 71.8413C139.216 72.063 133.89 72.4325 132.706 74.502C131.596 76.3498 134.703 77.3106 136.257 77.015C177.089 69.7718 188.999 153.512 200.243 153.956C200.095 142.721 200.538 131.265 199.799 119.957Z" fill="white"/>
<path d="M345.376 308.501V309.906C347.151 310.201 348.482 310.571 348.482 312.271C348.482 315.818 348.482 319.292 348.556 321.879C348.556 324.909 348.704 328.014 348.63 331.044C348.556 333.926 349 338.139 346.411 340.135C344.266 341.761 341.011 342.648 338.422 341.687C335.907 340.8 334.576 338.952 334.428 336.218C334.28 333.113 334.28 329.861 334.28 326.757C334.354 326.018 334.428 325.353 334.428 324.614C334.428 322.988 335.611 322.323 336.943 322.249L337.313 320.844H327.474L327.696 322.249C329.472 322.544 330.581 322.914 330.581 324.614C330.581 327.644 330.581 330.601 330.581 332.966C330.581 334.148 330.507 335.405 330.359 336.587C330.063 339.691 327.844 341.835 324.885 341.909C324.811 341.909 324.737 341.909 324.663 341.909C321.779 341.909 319.633 339.987 319.042 336.957C318.894 336.144 318.82 335.331 318.82 334.444C318.82 331.044 318.82 327.496 318.82 324.244C318.82 324.17 318.82 324.096 318.82 324.022C319.042 322.84 320.151 322.323 321.261 322.249L321.631 320.844H311.792L312.014 322.249C313.79 322.544 314.899 322.914 314.899 324.614C314.899 329.122 314.899 333.483 314.973 336.07C314.825 337.105 314.603 338.065 314.233 338.878C313.346 340.8 311.644 341.909 309.351 341.909H309.277C306.984 341.909 305.283 340.8 304.395 338.805C303.951 337.696 303.655 336.513 303.655 335.405C303.581 332.818 303.581 330.157 303.581 327.57C303.655 326.535 303.729 325.575 303.729 324.54C303.729 322.914 304.913 322.249 306.244 322.175L306.614 320.77H296.776L296.998 322.175C298.773 322.47 299.883 322.84 299.883 324.54C299.883 326.905 299.883 329.27 299.883 331.34C299.883 332.448 299.883 333.557 299.809 334.592C299.735 336.07 299.365 337.622 298.847 338.952C298.033 340.8 296.258 341.909 294.187 341.909C293.225 341.909 292.264 341.687 291.45 341.17C289.453 340.135 288.417 338.435 288.343 336.144C288.269 333.113 288.269 330.083 288.269 327.127C288.269 326.683 288.269 326.24 288.269 325.796C288.269 325.353 288.343 324.983 288.343 324.54C288.343 322.914 289.527 322.249 290.858 322.175L291.228 320.77H281.39L281.612 322.175C283.387 322.47 284.497 322.84 284.497 324.54C284.497 327.866 284.497 331.044 284.571 333.557C284.497 334.444 284.497 335.331 284.349 336.144C284.127 337.992 283.683 339.1 281.686 339.987C279.245 341.096 276.138 341.687 272.883 341.687C270.516 341.687 268.297 341.391 266.373 340.726C262.231 339.396 262.009 335.331 261.787 331.709C261.787 331.414 261.787 331.192 261.713 330.896C261.417 326.535 259.198 323.357 255.13 321.583C253.354 320.77 251.357 320.401 249.138 320.401C248.472 320.401 247.732 320.401 246.993 320.475C241.889 320.992 237.746 324.614 236.563 329.566C235.453 334.37 237.524 339.248 241.741 341.761C243.886 343.017 246.327 343.683 248.842 343.683C252.91 343.683 256.683 341.983 259.272 338.952L259.494 338.731C259.938 339.691 261.417 340.578 262.971 341.391C263.267 341.539 263.562 341.761 263.71 341.835C266.151 343.461 269.628 343.83 272.143 343.83C277.987 343.83 284.497 342.057 286.42 339.987C288.121 342.204 291.006 343.609 294.187 343.609C297.22 343.609 299.957 342.352 301.806 340.061C303.433 342.426 305.948 343.683 309.129 343.683H309.277C312.458 343.609 315.047 342.426 316.97 340.061C318.746 342.352 321.631 343.757 324.811 343.757C327.844 343.757 330.581 342.5 332.504 340.135C332.504 340.135 332.504 340.135 332.504 340.209C334.576 342.796 338.718 343.757 341.973 343.757C343.008 343.757 343.97 343.683 344.858 343.461C348.556 342.722 350.85 340.504 351.663 336.735C351.885 335.626 352.033 334.739 352.033 334C352.033 328.901 352.107 323.727 352.107 318.701C352.107 317.74 352.107 316.853 352.107 315.892L352.181 315.745C352.181 314.562 352.403 313.305 352.329 312.123C352.329 310.497 353.734 309.832 355.066 309.758L355.288 308.354H345.376V308.501ZM257.941 333.779C257.867 334.666 257.719 335.553 257.497 336.366C256.609 339.544 254.612 341.391 251.505 341.909C250.839 341.983 250.174 342.057 249.582 342.057C246.771 342.057 244.478 340.948 242.85 338.805C239.891 335.035 239.448 330.748 241.593 326.462C242.85 323.949 245.587 322.323 248.768 322.323C251.801 322.323 254.612 323.727 256.239 326.018C257.423 327.718 258.089 329.787 258.236 332.596C258.015 332.966 257.941 333.409 257.941 333.779Z" fill="white"/>
<path d="M395.233 312.64L392.496 312.419L392.644 314.414C392.644 314.266 401.89 314.266 402.556 314.266C402.26 313.527 401.964 312.714 401.742 311.975C401.742 311.975 399.375 312.345 399.153 312.345C398.34 312.345 397.6 312.271 396.934 311.827C395.677 311.088 394.715 309.462 396.047 308.354C397.304 307.319 399.523 307.467 401.077 307.393L402.038 305.249C401.594 305.323 393.531 304.436 393.088 308.575C392.792 310.201 393.605 311.384 395.233 312.64Z" fill="white"/>
<path d="M386.8 317.296C387.91 317.296 388.797 316.41 388.723 315.375C388.723 314.34 387.836 313.527 386.8 313.453C385.691 313.453 384.803 314.34 384.877 315.449C384.877 316.483 385.691 317.296 386.8 317.296Z" fill="white"/>
<path d="M246.919 318.11C247.954 318.11 248.768 317.297 248.842 316.188C248.842 315.079 247.954 314.192 246.919 314.192C245.809 314.192 244.996 315.079 244.996 316.188C244.996 317.297 245.883 318.11 246.919 318.11Z" fill="white"/>
<path d="M251.283 318.11C252.393 318.11 253.206 317.223 253.206 316.114C253.206 315.079 252.319 314.192 251.283 314.192C250.174 314.192 249.36 315.079 249.36 316.188C249.36 317.297 250.248 318.11 251.283 318.11Z" fill="white"/>
<path d="M267.187 346.491C266.078 346.491 265.19 347.378 265.19 348.487C265.19 349.522 266.078 350.335 267.187 350.335C268.297 350.335 269.11 349.522 269.11 348.413C269.11 347.378 268.297 346.565 267.187 346.491Z" fill="white"/>
<path d="M271.626 346.491C270.516 346.491 269.628 347.304 269.628 348.413C269.628 349.448 270.442 350.261 271.478 350.335C272.587 350.335 273.475 349.522 273.475 348.413C273.475 347.378 272.661 346.565 271.626 346.491Z" fill="white"/>
<path d="M382.066 322.323C383.841 322.618 385.173 322.988 385.173 324.688C385.173 327.792 385.173 330.822 385.247 333.261C385.247 334.518 385.173 335.848 385.025 337.105C384.655 339.839 382.362 341.761 379.477 341.761H379.403C376.666 341.761 372.376 340.061 371.858 337.105C371.636 335.553 371.488 334 371.562 332.522C371.71 329.344 370.674 326.462 368.603 324.244C366.31 321.805 362.981 320.549 358.987 320.549C358.247 320.549 356.62 320.623 356.62 320.697C356.62 320.844 356.768 322.397 356.768 322.397C356.989 322.397 357.951 322.249 358.469 322.249C361.724 322.249 364.239 323.579 365.866 326.166C368.307 330.009 368.381 334.074 366.236 338.139C365.052 340.431 362.907 341.687 360.244 341.761C360.17 341.761 360.022 341.761 359.948 341.761C359.061 341.761 358.173 341.687 357.285 341.539C356.842 341.465 356.324 341.465 355.88 341.392H355.51L355.658 343.461H355.954C356.915 343.609 357.803 343.683 358.691 343.683C363.277 343.683 366.902 341.983 369.639 338.435C371.34 341.687 376 343.683 379.403 343.683C379.773 343.683 380.143 343.683 380.439 343.609C385.469 342.944 388.058 340.505 388.576 336.07C388.871 333.409 389.167 325.649 389.167 324.392C389.167 322.766 390.795 322.101 392.052 322.027V320.623H382.214V322.323H382.066Z" fill="white"/>
<path d="M399.671 320.18C399.671 318.554 401.077 317.888 402.408 317.814L402.63 316.41H392.792V317.814C394.567 318.11 395.899 318.48 395.899 320.18C395.899 324.245 395.899 328.014 395.973 330.379C395.973 333.483 395.973 336.588 395.973 339.914C395.973 340.061 395.973 340.283 395.973 340.431C395.973 341.761 396.047 342.796 394.271 343.092L394.345 343.831H402.112L402.26 343.166C399.745 342.279 399.745 342.279 399.745 339.914V337.475C399.597 331.857 399.671 320.623 399.671 320.18Z" fill="white"/>
<path d="M55.9969 334.371C55.1832 332.818 53.8517 331.488 52.2243 330.749C50.0052 329.714 47.4901 329.566 44.9751 329.419C34.619 328.975 24.2629 329.419 13.9068 329.345C11.3177 329.345 8.72872 329.271 6.28764 328.458C4.2904 327.793 2.29315 326.167 2.51507 324.097C2.66301 322.988 3.47671 322.028 4.43834 321.436C5.39998 320.845 6.58353 320.623 7.69311 320.475C10.8739 320.032 14.1287 320.032 17.3095 320.032C24.0409 320.032 30.6984 320.106 37.3559 320.106C39.871 320.106 42.46 320.106 44.7531 318.997C47.1942 317.815 48.8956 315.523 50.0052 313.084C49.7832 312.937 49.6353 312.863 49.4134 312.715C45.3449 315.893 39.797 316.041 34.6929 316.041C28.4793 316.041 22.2656 316.115 16.1259 315.967C12.7232 315.893 9.17256 315.893 6.06573 317.149C2.88493 318.48 0.221933 321.51 0.443849 324.91C0.665765 327.94 3.18082 330.453 6.06573 331.636C8.95064 332.745 12.0575 332.745 15.1643 332.745C23.967 332.745 32.7697 332.745 41.6463 332.745C44.8271 332.745 48.0079 332.745 51.1147 333.631C52.2243 333.927 53.3339 334.371 53.9257 335.331C55.0353 336.957 53.9996 339.323 52.2983 340.357C50.5969 341.392 48.5257 341.392 46.6024 341.466C32.8436 341.54 19.1588 341.54 5.39998 341.392C4.51231 341.392 3.55068 341.392 2.66301 341.688C1.77535 341.983 1.03563 342.722 0.961654 343.683C16.1259 343.683 31.2902 343.683 46.4545 343.683C48.9695 343.683 51.5586 343.683 53.7777 342.501C57.1065 340.727 57.4763 337.179 55.9969 334.371Z" fill="white"/>
<path d="M82.9966 344.569C89.2842 344.569 93.2787 341.243 93.8705 335.478C94.0924 333.261 94.0924 330.6 94.0924 328.753L94.1664 328.605C94.1664 327.422 94.1664 326.166 94.1664 324.983C94.1664 323.357 95.202 322.692 96.4595 322.618L96.8294 321.214H86.9911L87.213 322.618C88.9883 322.914 90.0979 323.283 90.0979 324.983C90.0979 326.092 90.0979 327.274 90.1719 328.309C90.1719 328.457 90.1719 328.531 90.1719 328.679C90.1719 328.679 90.1719 328.827 90.1719 329.122C90.1719 329.566 90.1719 330.083 90.1719 330.527C90.1719 332.448 90.0979 334.518 89.876 336.439C89.4322 339.839 86.7692 342.352 83.3665 342.5C83.2925 342.5 83.1445 342.5 83.0706 342.5C80.1117 342.5 77.5966 340.209 76.9309 336.809C76.635 335.552 76.561 334.222 76.561 332.966C76.561 328.457 76.561 325.057 76.561 321.657C76.561 318.11 76.561 316.484 76.561 311.827V311.753C76.8569 310.719 77.7446 310.275 78.7802 310.201L79.1501 308.797H69.1638L69.3857 310.201C71.1611 310.497 72.2706 310.866 72.2706 312.566C72.2706 312.714 72.2706 312.862 72.2706 313.01C72.2706 313.158 72.2706 313.232 72.2706 313.379C72.3446 315.005 72.2706 314.118 72.2706 315.005C72.2706 316.336 72.2706 317.297 72.2706 319.81C72.2706 320.918 72.2706 322.027 72.2706 323.135C72.2706 326.905 72.3446 330.748 72.5665 334.518C73.0104 340.726 77.0049 344.569 82.9966 344.569Z" fill="white"/>
<path d="M58.8817 316.706C60.657 317.002 61.7666 317.371 61.7666 319.071C61.7666 326.24 62.8762 332.892 61.6187 338.805C60.0653 346.048 55.1091 348.414 55.1091 348.414C55.1091 348.414 57.7721 351.074 57.8461 351C60.1392 348.709 62.5063 346.492 63.9858 343.609C65.6871 340.357 65.7611 336.588 65.8351 332.966V332.671C65.9091 329.345 65.8351 325.945 65.8351 322.693C65.8351 321.51 65.8351 320.254 65.8351 319.071C65.8351 317.445 66.8707 316.78 68.1282 316.706L68.4981 315.302H58.6598L58.8817 316.706Z" fill="white"/>
<path d="M85.2898 345.752C84.0323 345.752 82.9967 346.787 83.0706 348.043C83.0706 349.3 84.0323 350.187 85.2898 350.187C86.6213 350.187 87.5829 349.226 87.5829 347.969C87.509 346.713 86.5473 345.752 85.2898 345.752Z" fill="white"/>
<path d="M228.5 331.119C228.352 327.127 226.429 324.171 222.952 322.471C221.103 321.584 219.105 321.141 217.034 321.141C216.072 321.141 215.037 321.215 214.001 321.436C209.119 322.397 205.42 326.388 204.977 331.192C204.459 336.588 207.196 341.318 211.708 342.944C213.409 343.535 215.111 343.905 216.738 343.905C219.697 343.905 222.434 342.87 224.875 340.727C226.207 345.161 220.881 349.3 220.881 349.3L221.25 350.853C221.472 350.779 222.582 350.261 222.804 350.04C225.763 348.044 227.982 344.792 228.204 342.131C228.648 338.879 228.722 335.257 228.5 331.119ZM224.727 333.705C224.653 334.297 224.579 334.962 224.505 335.479C223.913 338.805 222.064 340.801 219.105 341.466C218.514 341.614 217.922 341.688 217.33 341.688C214.593 341.688 212.078 340.283 210.672 338.14C208.527 334.74 208.231 330.971 209.785 327.275C210.82 324.762 213.409 323.21 216.442 323.21C218.883 323.21 221.103 324.245 222.582 326.019C223.987 327.793 224.727 330.01 224.801 332.892C224.801 333.114 224.727 333.41 224.727 333.705Z" fill="white"/>
<path d="M192.402 345.679C191.218 345.679 190.256 346.713 190.256 347.896C190.256 349.152 191.292 350.187 192.549 350.113C193.733 350.113 194.695 349.079 194.695 347.896C194.621 346.713 193.585 345.679 192.402 345.679Z" fill="white"/>
<path d="M197.432 345.679C196.248 345.679 195.286 346.64 195.212 347.896C195.212 349.152 196.174 350.187 197.432 350.187C198.615 350.187 199.577 349.226 199.651 347.97C199.725 346.713 198.689 345.679 197.432 345.679Z" fill="white"/>
<path d="M151.717 345.679C150.533 345.679 149.572 346.713 149.572 347.896C149.572 349.152 150.607 350.187 151.865 350.113C153.048 350.113 154.01 349.079 154.01 347.896C154.01 346.713 152.974 345.679 151.717 345.679Z" fill="white"/>
<path d="M156.821 345.679C155.637 345.679 154.676 346.64 154.602 347.896C154.602 349.152 155.563 350.187 156.821 350.187C158.004 350.187 158.966 349.226 159.04 347.97C159.04 346.713 158.078 345.679 156.821 345.679Z" fill="white"/>
<path d="M171.246 317.962C172.429 317.962 173.391 317.001 173.465 315.744C173.465 314.488 172.503 313.453 171.246 313.453C170.062 313.453 169.1 314.414 169.026 315.67C169.026 316.927 169.988 317.962 171.246 317.962Z" fill="white"/>
<path d="M194.843 322.618C196.618 322.914 197.727 323.283 197.727 324.983C197.727 327.644 197.727 330.231 197.727 332.448C197.727 332.892 197.727 333.335 197.727 333.852C197.727 335.109 197.653 336.144 197.506 337.105C197.062 339.765 195.064 341.613 192.623 341.687C192.549 341.687 192.549 341.687 192.475 341.687C190.108 341.687 188.333 340.061 187.815 337.4C187.519 336.144 187.445 334.739 187.445 333.039C187.445 328.014 187.445 322.988 187.445 318.036C187.445 317.444 187.445 316.779 187.445 316.188C187.445 315.005 187.667 313.749 187.593 312.566C187.593 310.94 188.777 310.275 190.108 310.201L190.478 308.797H180.64L180.862 310.201C182.637 310.497 183.747 310.866 183.747 312.566C183.747 316.557 183.747 320.475 183.821 323.062C183.821 326.831 183.821 330.6 183.747 334.37C183.747 335.848 183.377 337.474 182.785 338.878C182.119 340.578 180.492 341.613 178.643 341.613C177.903 341.613 177.163 341.465 176.497 341.096C174.5 340.135 173.465 338.509 173.391 336.144C173.317 333.335 173.317 330.453 173.317 327.644C173.317 327.201 173.317 326.831 173.317 326.388C173.391 325.87 173.391 325.353 173.391 324.835C173.391 323.209 174.574 322.544 175.906 322.47L176.276 321.066H166.437H166.289L166.437 321.214L166.585 322.47C168.361 322.766 169.47 323.135 169.47 324.835C169.47 326.461 169.544 328.014 169.618 329.492C169.618 330.97 169.618 332.448 169.47 333.926C169.322 335.774 168.952 337.548 168.287 339.026C167.621 340.578 166.215 341.465 164.514 341.465C163.7 341.465 162.887 341.244 162.073 340.8C160.298 339.839 159.41 338.213 159.336 335.922C159.262 333.409 159.262 330.896 159.262 328.457V328.383C159.262 327.201 159.484 325.944 159.41 324.762C159.41 323.135 160.593 322.47 161.925 322.396L162.295 320.992H152.457L152.678 322.396C154.232 322.618 155.341 322.988 155.563 324.244C155.563 324.466 155.563 324.761 155.563 325.057C155.563 325.87 155.563 326.683 155.563 327.57C155.563 329.64 155.563 331.783 155.489 333.852C155.415 335.405 155.046 337.031 154.528 338.583C153.862 340.43 152.309 341.465 150.237 341.465C148.314 341.465 146.761 340.504 146.021 338.878C145.503 337.696 145.133 336.439 145.133 335.405C145.059 333.039 145.059 330.6 145.059 328.309C145.059 328.161 145.059 327.94 145.059 327.792C145.133 326.831 145.207 325.87 145.207 324.835C145.207 323.209 146.391 322.544 147.722 322.47L148.092 321.066H146.687H137.958L138.254 321.288L138.402 322.47C140.029 322.766 141.139 323.062 141.287 324.54C141.287 325.353 141.287 326.166 141.287 326.979C141.287 329.418 141.361 331.931 141.213 334.37C141.139 335.7 140.843 337.178 140.325 338.804C139.807 340.283 138.698 341.17 136.996 341.391C136.626 341.465 136.257 341.465 135.961 341.465C133.15 341.465 131.374 339.839 131.153 336.883C130.857 333.483 130.857 330.009 130.857 326.609C130.857 326.461 130.857 326.24 130.857 326.092C130.857 325.648 130.931 325.205 130.931 324.762C130.931 323.135 132.114 322.47 133.446 322.396L133.816 320.992H123.977L124.199 322.396C125.974 322.692 127.084 323.062 127.084 324.762C127.084 325.796 127.084 326.831 127.158 327.866C127.158 328.161 127.158 328.457 127.158 328.827C127.158 330.97 127.158 333.261 127.084 335.478C127.084 336.365 126.862 337.4 126.418 338.435C125.605 340.357 124.125 341.391 122.054 341.391C119.983 341.391 118.503 340.357 117.69 338.435C117.246 337.326 117.024 336.07 116.95 334.887C116.876 332.374 116.876 329.861 116.876 327.422C116.876 326.979 116.876 326.535 116.876 326.092C116.876 325.648 116.95 325.205 116.95 324.762C116.95 323.135 118.133 322.47 119.465 322.396L119.835 320.992H119.391H110.366H110.218L110.44 322.396C112.216 322.692 113.325 323.062 113.325 324.762C113.325 326.24 113.399 327.644 113.399 329.048C113.399 331.34 113.399 333.705 113.251 335.996C113.103 338.509 112.364 341.17 111.106 343.313C109.627 345.826 106.668 347.304 103.857 347.895C102.155 348.265 100.306 348.339 98.6048 347.822C98.161 347.674 95.3501 346.787 95.6459 345.974C95.1281 347.156 94.6843 348.339 94.2405 349.521C94.0925 349.965 97.1994 350.187 97.4952 350.261C101.268 350.556 104.745 350.556 108.073 348.561C110.662 346.935 112.807 344.569 114.287 341.909C114.583 341.391 114.879 340.874 115.175 340.357C116.95 342.5 119.391 343.683 122.054 343.683C124.865 343.683 127.528 342.426 129.155 340.357C130.709 342.574 133.002 343.683 136.183 343.756H136.257C139.289 343.756 141.657 342.574 143.284 340.357C144.911 342.574 147.278 343.683 150.385 343.683H150.459C153.492 343.683 155.859 342.574 157.487 340.357C159.336 342.574 161.629 343.756 164.144 343.756C166.659 343.756 169.174 342.574 171.393 340.357C173.021 342.574 175.462 343.683 178.495 343.683C181.454 343.683 183.895 342.5 185.522 340.357C187.297 342.574 189.59 343.683 192.253 343.683C192.993 343.683 193.807 343.609 194.621 343.387C198.393 342.574 200.612 339.987 200.908 336.144C201.13 333.631 201.204 331.118 201.204 328.605L201.278 328.457C201.278 327.274 201.5 326.018 201.426 324.835C201.426 323.209 202.61 322.544 203.941 322.47L204.311 321.066H194.473L194.843 322.618Z" fill="white"/>
</g>
<defs>
<clipPath id="clip0_0_578">
<rect width="403" height="351" fill="white"/>
</clipPath>
</defs>
</svg>
