<svg width="20" height="20" viewBox="0 0 20 20" fill="none" xmlns="http://www.w3.org/2000/svg">
<path d="M4.49276 19.9795H0.350367V6.63939H4.49276V19.9795ZM2.41901 4.82121C1.94232 4.82282 1.47585 4.6831 1.07856 4.41969C0.681275 4.15629 0.370997 3.78103 0.186947 3.34135C0.00289629 2.90167 -0.0466652 2.4173 0.0445265 1.94946C0.135718 1.48162 0.363569 1.05131 0.699282 0.712924C1.035 0.374534 1.4635 0.143252 1.93064 0.0483086C2.39778 -0.0466348 2.88258 -0.000977065 3.32377 0.179511C3.76497 0.359999 4.14275 0.667216 4.40937 1.06233C4.67599 1.45745 4.81948 1.92273 4.8217 2.39936C4.82252 3.03858 4.57027 3.65212 4.12005 4.10593C3.66983 4.55973 3.05827 4.8169 2.41901 4.82121ZM19.9969 19.9795H15.8637V13.4831C15.8637 11.9356 15.832 9.95092 13.7102 9.95092C11.5568 9.95092 11.2268 11.6322 11.2268 13.3717V19.9795H7.0875V6.63939H11.0603V8.46063H11.1185C11.5157 7.78069 12.09 7.22124 12.7801 6.84187C13.4702 6.46251 14.2502 6.27744 15.0372 6.3064C19.2256 6.3064 19.9999 9.0643 19.9999 12.6526V19.9795H19.9969Z" fill="white"/>
</svg>
