<svg width="24" height="17" viewBox="0 0 24 17" fill="none" xmlns="http://www.w3.org/2000/svg">
<path d="M23.4965 2.63916C23.3604 2.12817 23.0925 1.6619 22.7195 1.28701C22.3466 0.912131 21.8817 0.641798 21.3714 0.503081C19.501 0 11.998 0 11.998 0C11.998 0 4.4961 0 2.62464 0.503081C2.11511 0.642412 1.65106 0.913018 1.27887 1.28786C0.906676 1.6627 0.639367 2.12866 0.503652 2.63916C0.157267 4.55672 -0.011143 6.50219 0.000571466 8.45075C-0.011143 10.3993 0.157267 12.3448 0.503652 14.2623C0.64019 14.7686 0.908368 15.2297 1.28091 15.5987C1.65346 15.9677 2.11708 16.2315 2.62464 16.3632C4.4961 16.8663 11.998 16.8663 11.998 16.8663C11.998 16.8663 19.5 16.8663 21.3714 16.3632C21.8796 16.2322 22.344 15.9689 22.7173 15.6C23.0906 15.2311 23.3594 14.7699 23.4965 14.2633C23.8428 12.3458 24.0113 10.4003 23.9995 8.45176C24.0113 6.5032 23.8428 4.55773 23.4965 2.64017V2.63916ZM9.54401 12.0186V4.88391L15.8144 8.45176L9.54401 12.0186Z" fill="white"/>
</svg>
