<svg width="20" height="20" viewBox="0 0 20 20" fill="none" xmlns="http://www.w3.org/2000/svg">
<path d="M10.0025 4.87254C8.9883 4.87254 7.99691 5.17333 7.1537 5.73686C6.3105 6.30039 5.65337 7.10134 5.26545 8.03839C4.87753 8.97545 4.77623 10.0065 4.97439 11.0011C5.17254 11.9958 5.66123 12.9093 6.37865 13.6261C7.09606 14.343 8.00997 14.831 9.00476 15.0283C9.99955 15.2257 11.0305 15.1236 11.9673 14.7349C12.904 14.3463 13.7045 13.6885 14.2673 12.8448C14.8302 12.0012 15.1302 11.0096 15.1294 9.99539C15.1299 9.32215 14.9976 8.65542 14.7401 8.03339C14.4826 7.41135 14.1049 6.84622 13.6287 6.37036C13.1525 5.8945 12.587 5.51726 11.9648 5.26024C11.3425 5.00322 10.6757 4.87147 10.0025 4.87254ZM10.0025 13.3326C9.34342 13.3326 8.69915 13.1372 8.1511 12.7711C7.60306 12.4051 7.17584 11.8847 6.92344 11.2759C6.67105 10.6671 6.6048 9.99712 6.73308 9.35066C6.86137 8.70421 7.17842 8.11029 7.64416 7.64398C8.1099 7.17767 8.70343 6.8599 9.34973 6.73083C9.99603 6.60177 10.6661 6.66719 11.2752 6.91885C11.8843 7.17051 12.4052 7.59709 12.7719 8.14469C13.1387 8.69229 13.3348 9.33632 13.3356 9.99539C13.334 10.8789 12.9823 11.7258 12.3576 12.3505C11.7329 12.9752 10.886 13.3269 10.0025 13.3285V13.3326ZM16.535 4.66276C16.535 4.89927 16.4649 5.13047 16.3335 5.32713C16.2021 5.52378 16.0153 5.67706 15.7968 5.76757C15.5783 5.85808 15.3378 5.88176 15.1059 5.83562C14.8739 5.78948 14.6608 5.67558 14.4936 5.50834C14.3263 5.3411 14.2124 5.12802 14.1663 4.89605C14.1202 4.66408 14.1438 4.42364 14.2344 4.20513C14.3249 3.98662 14.4781 3.79985 14.6748 3.66845C14.8714 3.53705 15.1026 3.46692 15.3392 3.46692C15.4963 3.46652 15.652 3.49717 15.7973 3.55713C15.9425 3.61708 16.0745 3.70515 16.1856 3.81628C16.2968 3.9274 16.3848 4.05939 16.4448 4.20465C16.5047 4.34992 16.5354 4.5056 16.535 4.66276ZM19.931 5.87886C19.9649 4.32298 19.3845 2.81636 18.3156 1.68532C17.1833 0.621002 15.6798 0.0413107 14.1261 0.0699261C12.4752 -0.0233087 7.52669 -0.0233087 5.87582 0.0699261C4.32156 0.0400712 2.81738 0.619918 1.68532 1.68532C0.619977 2.81578 0.0400523 4.31871 0.0699261 5.87177C-0.0233087 7.52263 -0.0233087 12.4712 0.0699261 14.122C0.0370683 15.6765 0.617357 17.1815 1.68532 18.3115C2.81806 19.3752 4.3212 19.9548 5.87481 19.9269C7.52567 20.0202 12.4742 20.0202 14.1251 19.9269C15.6796 19.9597 17.1845 19.3794 18.3146 18.3115C19.3789 17.1792 19.9586 15.6758 19.93 14.122C20.0232 12.4712 20.0232 7.52669 19.93 5.87582L19.931 5.87886ZM17.8028 15.8965C17.6326 16.3275 17.3756 16.7188 17.0476 17.046C16.7197 17.3733 16.3278 17.6295 15.8965 17.7987C14.5791 18.3206 11.4567 18.2041 10.0025 18.2041C8.54822 18.2041 5.41978 18.3196 4.10841 17.7987C3.67776 17.6286 3.28674 17.3716 2.95966 17.0439C2.63259 16.7161 2.37647 16.3245 2.20723 15.8935C1.68532 14.5761 1.80187 11.4537 1.80187 9.99944C1.80187 8.54518 1.68634 5.41674 2.20723 4.10537C2.37693 3.67511 2.63326 3.28432 2.96031 2.95727C3.28736 2.63022 3.67815 2.37389 4.10841 2.20419C5.42586 1.68228 8.54822 1.79882 10.0025 1.79882C11.4567 1.79882 14.5852 1.68329 15.8965 2.20419C16.3268 2.37389 16.7176 2.63022 17.0446 2.95727C17.3717 3.28432 17.628 3.67511 17.7977 4.10537C18.3196 5.42282 18.2031 8.54518 18.2031 9.99944C18.2031 11.4537 18.3196 14.5811 17.7977 15.8935L17.8028 15.8965Z" fill="white"/>
</svg>
