<svg width="1720" height="100" viewBox="0 0 1720 100" fill="none" xmlns="http://www.w3.org/2000/svg">
<g filter="url(#filter0_b_0_535)">
<rect width="1720" height="100" rx="12" fill="#1E2F2B" fill-opacity="0.6"/>
<path d="M139.506 38.8307H139.791C139.859 38.8233 139.928 38.8348 139.99 38.8639C140.052 38.8931 140.105 38.9388 140.142 38.996C140.244 39.1472 140.529 39.7907 139.791 41.6932L138.338 49.8691C137.934 48.3816 136.795 46.7605 135.768 45.2976C135.374 44.735 135.001 44.204 134.692 43.7152C133.788 42.2699 133.879 41.018 134.228 40.3885C134.325 40.1924 134.475 40.0276 134.662 39.9132C134.849 39.7987 135.064 39.7392 135.283 39.7415C135.321 39.7431 135.359 39.7522 135.394 39.7685C135.429 39.7848 135.461 39.8079 135.487 39.8364C135.528 39.9237 135.552 40.0184 135.557 40.115C135.562 40.2115 135.547 40.3081 135.515 40.3991L135.356 40.7121L136.225 40.9793L137.241 37.2553L136.422 37.0654L136.352 37.3362C136.264 37.6703 135.817 37.7512 135.353 37.7898C135.276 37.7898 135.212 37.7898 135.181 37.7898C134.763 37.8596 134.369 38.0299 134.032 38.286C133.695 38.5421 133.426 38.8763 133.247 39.2598C132.663 40.4448 132.821 42.0343 133.683 43.6167C133.759 43.7751 133.848 43.9268 133.95 44.0704C134.344 45.0163 134.003 46.1275 133.774 46.8625L132.614 49.8515C132.209 48.364 131.07 46.7359 130.039 45.28C129.646 44.7174 129.273 44.1864 128.984 43.6976C128.081 42.2523 128.169 41.0004 128.52 40.371C128.617 40.1746 128.768 40.0096 128.954 39.8951C129.141 39.7806 129.356 39.7213 129.575 39.7239C129.616 39.7245 129.655 39.7332 129.692 39.7495C129.729 39.7658 129.762 39.7894 129.79 39.8189C129.831 39.9114 129.852 40.0114 129.852 40.1125C129.852 40.2136 129.831 40.3136 129.79 40.4061V40.4413V40.7332L130.535 40.9617L131.555 37.2377L130.732 37.0479L130.662 37.3186C130.56 37.6984 129.959 37.7476 129.646 37.7722C129.565 37.7722 129.501 37.7722 129.47 37.7722C129.037 37.8462 128.63 38.0281 128.287 38.301C127.943 38.5739 127.674 38.929 127.504 39.3336C126.91 40.6488 127.195 42.393 128.288 44.1266C128.591 44.6049 128.956 45.1218 129.343 45.6704C130.398 47.1754 131.587 48.8774 131.882 50.2594C131.988 50.8959 131.882 51.0893 131.847 51.1421C131.812 51.1948 131.801 51.1948 131.678 51.1948H131.594L131.411 51.1737L131.031 51.8243L131.945 52.3518L133.197 53.0551L135.687 46.553C136.556 47.833 137.364 49.1412 137.621 50.2559C137.713 50.8994 137.621 51.0929 137.568 51.1456C137.516 51.1984 137.519 51.1984 137.396 51.1984H137.312L137.129 51.1772L136.745 51.8313L137.681 52.3518L138.912 53.0551L141.553 41.8479C142.368 39.6852 142.776 38.8026 143.511 38.8026H143.796V38.0008H139.555L139.506 38.8307Z" fill="white"/>
<path d="M148.94 43.0392C148.94 41.3934 149.422 40.3279 150.167 40.3279H150.835C152.759 40.3279 154.454 41.4567 154.862 43.0146L154.928 43.2572L155.667 43.0849L154.732 39.5684H145.94V40.3209H146.2C146.932 40.3209 147.428 41.411 147.428 43.0321C147.404 43.4317 147.469 43.8315 147.618 44.203C147.767 44.5745 147.996 44.9084 148.289 45.1807C147.586 45.5535 147.428 46.4361 147.428 48.2507V49.2845C147.428 50.9197 146.946 51.9782 146.2 51.9782H145.94V52.7729H154.732L155.667 49.2564L154.928 49.0876L154.862 49.3302C154.454 50.8881 152.752 52.0169 150.835 52.0169H150.73C149.323 52.0169 148.94 51.412 148.94 49.3232V48.2893C148.94 47.9377 148.94 47.6212 148.94 47.3504C148.912 45.8102 148.94 45.7821 149.706 45.7574H149.798C151.792 45.7574 151.908 46.3623 151.908 47.3469V47.6071H152.66V43.8515H151.908V44.1082C151.908 44.6673 151.908 44.9733 149.847 44.9733H149.812C149.709 44.9823 149.605 44.9705 149.506 44.9385C149.408 44.9064 149.317 44.8549 149.239 44.7869C148.957 44.502 148.961 43.8655 148.964 43.2502L148.94 43.0392Z" fill="white"/>
<path d="M166.766 49.292C166.341 50.8603 164.656 51.9997 162.722 51.9997H162.627C161.221 51.9997 160.837 51.3913 160.837 49.2884V43.0361C160.837 41.4009 161.319 40.3424 162.064 40.3424H162.325V39.5723H157.855V40.3424H158.115C158.861 40.3424 159.343 41.3974 159.343 43.0361V49.2884C159.343 50.9342 158.861 51.9997 158.115 51.9997H157.855V52.7698H166.629L167.582 49.2779L166.85 49.0528L166.766 49.292Z" fill="white"/>
<path d="M178.671 49.292C178.245 50.8603 176.561 51.9997 174.627 51.9997H174.518C173.132 51.9997 172.732 51.3913 172.732 49.2884V43.0361C172.732 41.4009 173.213 40.3424 173.959 40.3424H174.215V39.5723H169.75V40.3424H170.006C170.752 40.3424 171.233 41.3974 171.233 43.0361V49.2884C171.233 50.9342 170.752 51.9997 170.006 51.9997H169.75V52.7698H178.52L179.473 49.2779L178.741 49.0528L178.671 49.292Z" fill="white"/>
<path d="M188.436 40.3422H188.696C189.618 40.3422 190.286 40.3422 190.286 43.0359V48.701C189.621 47.2944 188.608 46.4117 187.624 45.5361C186.411 44.4812 185.264 43.4719 184.811 41.5625V41.5378C184.716 41.0315 184.747 40.6622 184.905 40.4829C184.98 40.4076 185.071 40.3502 185.17 40.3149C185.27 40.2796 185.377 40.2673 185.482 40.2789H185.739V39.5088H181.266V40.2789H181.526C182.447 40.2789 183.116 40.2789 183.116 42.9761V49.3059C183.116 52.0171 182.447 52.0171 181.526 52.0171H181.266V52.7696H185.732V52.0171H185.486C184.561 52.0171 183.896 52.0171 183.896 49.3059V43.4579C184.54 44.7555 185.507 45.5959 186.453 46.4117C187.768 47.5511 189.013 48.6272 189.414 50.8812C189.455 51.0355 189.464 51.1965 189.44 51.3544C189.417 51.5122 189.361 51.6636 189.277 51.7991C189.201 51.8747 189.109 51.932 189.008 51.9667C188.907 52.0015 188.799 52.0127 188.693 51.9995H188.433V52.7696H192.899V52.0171H192.642C191.745 52.0171 191.035 52.0171 191.035 49.3059V43.0359C191.035 40.3422 191.71 40.3422 192.642 40.3422H192.899V39.5721H188.433L188.436 40.3422Z" fill="white"/>
<path d="M198.997 43.0392C198.997 41.3934 199.479 40.3279 200.225 40.3279H200.896C202.82 40.3279 204.511 41.4567 204.923 43.0146L204.986 43.2572L205.728 43.0849L204.793 39.5684H196.001V40.3209H196.258C196.993 40.3209 197.485 41.411 197.485 43.0321C197.462 43.4319 197.528 43.8318 197.677 44.2033C197.827 44.5748 198.057 44.9086 198.35 45.1807C197.629 45.5535 197.485 46.4361 197.485 48.2507V49.2845C197.485 50.9197 197.003 51.9782 196.258 51.9782H196.036V52.7729H204.828L205.76 49.2564L205.021 49.0876L204.958 49.3302C204.546 50.8881 202.848 52.0169 200.931 52.0169H200.822C199.437 52.0169 199.032 51.412 199.032 49.3232V48.2893C199.032 47.9353 199.032 47.6224 199.032 47.3504C199.008 45.8102 199.032 45.7821 199.799 45.7574H199.89C201.888 45.7574 202 46.3623 202 47.3469V47.6071H202.756V43.8515H202V44.1082C202 44.6673 202 44.9733 199.943 44.9733H199.905C199.802 44.9827 199.698 44.971 199.6 44.9389C199.503 44.9069 199.412 44.8551 199.335 44.7869C199.05 44.502 199.054 43.8655 199.057 43.2502L198.997 43.0392Z" fill="white"/>
<path d="M213.301 44.9557C211.694 44.4704 210.175 44.0133 209.837 42.2972C209.759 41.9966 209.749 41.6821 209.81 41.3775C209.871 41.0729 210.001 40.7861 210.189 40.5389C210.611 40.022 211.356 39.7512 212.338 39.7512C214.581 39.7512 215.418 41.5306 215.896 43.0849L215.967 43.3135L216.691 43.1447L215.636 38.7842L215.003 38.9776L214.964 39.1147C214.933 39.2415 214.893 39.3661 214.845 39.4875L214.655 39.4137C213.928 39.1036 213.142 38.956 212.352 38.9811C211.838 38.9657 211.327 39.0544 210.849 39.2418C210.371 39.4291 209.936 39.7113 209.57 40.0712C209.236 40.428 208.978 40.8496 208.814 41.31C208.649 41.7703 208.581 42.2595 208.614 42.7473C208.708 44.917 209.841 45.8805 211.219 46.4572C210.715 46.6133 210.258 46.8928 209.89 47.2705C209.521 47.6483 209.253 48.1121 209.109 48.6199V48.6481V48.7254L208.789 50.4098L208.36 52.7905L209.106 52.903L209.152 52.6569C209.282 51.9747 209.45 51.9747 209.552 51.9747C209.822 52.0093 210.085 52.0827 210.333 52.1927C211.202 52.5441 212.128 52.7301 213.065 52.7413C213.61 52.7647 214.153 52.677 214.662 52.4835C215.171 52.29 215.635 51.9948 216.026 51.616C216.408 51.1982 216.701 50.7072 216.887 50.1729C217.073 49.6385 217.149 49.0719 217.109 48.5074C217.05 46.0458 215.172 45.4937 213.357 44.9451M210.069 48.328C210.319 47.9091 210.676 47.5651 211.104 47.3318C211.533 47.0986 212.016 46.9847 212.503 47.0023C212.716 47.0009 212.929 47.0269 213.136 47.0797C214.62 47.5192 215.742 48.001 215.597 49.7768C215.457 51.1835 214.563 51.9712 213.083 51.9712C212.529 51.98 211.982 51.8462 211.495 51.5826C211.008 51.319 210.597 50.9345 210.301 50.4661C210.087 50.1572 209.955 49.7988 209.918 49.4248C209.88 49.0508 209.938 48.6733 210.087 48.328" fill="white"/>
<path d="M225.138 44.9557C223.527 44.4704 222.008 44.0133 221.674 42.2972C221.593 41.9982 221.58 41.6846 221.637 41.38C221.694 41.0755 221.82 40.7878 222.005 40.5389C222.43 40.022 223.172 39.7512 224.157 39.7512C226.4 39.7512 227.237 41.5306 227.712 43.0849L227.782 43.3135L228.51 43.1447L227.455 38.7842L226.822 38.9776L226.787 39.1147C226.755 39.2418 226.714 39.3664 226.664 39.4875L226.474 39.4137C225.748 39.1039 224.963 38.9563 224.174 38.9811C223.661 38.9653 223.149 39.0537 222.67 39.241C222.192 39.4284 221.756 39.7108 221.389 40.0712C221.056 40.4282 220.799 40.8499 220.635 41.3103C220.471 41.7706 220.403 42.2598 220.436 42.7473C220.531 44.917 221.664 45.8805 223.039 46.4572C222.535 46.6133 222.077 46.8928 221.709 47.2705C221.34 47.6483 221.072 48.1121 220.929 48.6199V48.6481V48.7254L220.605 50.4098L220.18 52.7905L220.925 52.903L220.971 52.6569C221.098 51.9747 221.27 51.9747 221.372 51.9747C221.641 52.0093 221.904 52.0827 222.152 52.1927C223.02 52.5441 223.945 52.7302 224.881 52.7413C225.426 52.7647 225.97 52.6771 226.479 52.4836C226.989 52.2902 227.454 51.9949 227.846 51.616C228.227 51.1977 228.519 50.7067 228.705 50.1725C228.891 49.6382 228.967 49.0718 228.929 48.5074C228.866 46.0458 226.991 45.4937 225.177 44.9451M221.885 48.328C222.135 47.9094 222.493 47.5655 222.921 47.3323C223.349 47.0991 223.831 46.9851 224.319 47.0023C224.533 47.0007 224.747 47.0267 224.955 47.0797C226.439 47.5192 227.561 48.001 227.399 49.7768C227.255 51.1835 226.362 51.9712 224.881 51.9712C224.328 51.9801 223.782 51.8463 223.295 51.5826C222.808 51.319 222.398 50.9345 222.103 50.4661C221.888 50.1575 221.756 49.7993 221.718 49.4253C221.679 49.0512 221.737 48.6736 221.885 48.328Z" fill="white"/>
<path d="M240.82 37.1029C240.619 37.1029 240.408 37.1029 240.201 37.1029H235.218V38.0172H235.524C236.406 38.0172 236.976 39.2691 236.976 41.2067V48.6125C236.976 50.5642 236.406 51.8266 235.524 51.8266H235.218V52.7163H240.493V51.8266H240.187C239.318 51.8266 238.734 50.5361 238.734 48.6125V47.2376C238.734 46.5694 240.19 46.0455 241.597 45.5356C243.781 44.7479 246.52 43.7773 246.52 41.4669C246.52 39.4695 245.532 37.0889 240.823 37.0889M238.752 41.2067C238.752 39.2691 239.322 38.0172 240.204 38.0172C243.116 38.0172 244.47 39.1109 244.47 41.4669C244.47 42.9017 242.659 43.7738 240.907 44.6318C240.154 44.9627 239.433 45.3617 238.752 45.8239V41.2067Z" fill="white"/>
<path d="M256.251 49.2553L252.383 39.1172L251.268 39.7572L250.428 40.2495L250.78 40.8368L250.948 40.8157H251.026C251.142 40.8157 251.17 40.8508 251.184 40.8649C251.198 40.879 251.307 41.0794 251.23 41.6315C250.945 42.915 249.855 44.4623 248.891 45.8302C248.54 46.312 248.234 46.7656 247.963 47.1841C246.908 48.8615 246.704 50.5143 247.372 51.7204C247.565 52.0873 247.853 52.3952 248.207 52.6113C248.56 52.8274 248.966 52.9437 249.38 52.9477C249.73 52.9455 250.076 52.8675 250.393 52.7191C251.631 52.16 251.845 50.6338 252.039 49.2905C252.232 47.9472 252.39 47.1525 253.027 47.0892H253.083C253.568 47.0892 254.057 47.6588 254.465 48.6821L254.736 49.4312C255.393 51.1297 255.137 51.7099 255.045 51.847C255.011 51.895 254.966 51.9336 254.913 51.9594C254.86 51.9852 254.802 51.9973 254.743 51.9947H254.483V52.7719H258.316V52.0017H258.059C257.394 52.0017 257.022 51.2105 256.269 49.2694M249.588 46.1995C250.519 44.8597 251.553 43.3863 251.919 42.0324L253.603 46.4281C253.438 46.3614 253.261 46.3268 253.083 46.3261H252.967C251.698 46.4562 251.423 47.5955 251.159 48.6962C250.927 49.6492 250.688 50.6373 249.823 51.0382C249.616 51.1386 249.389 51.1937 249.159 51.2C248.959 51.1997 248.763 51.1435 248.593 51.0379C248.424 50.9323 248.287 50.7814 248.199 50.6022C247.882 50.0325 247.805 48.9037 248.628 47.6061C248.902 47.17 249.236 46.6953 249.588 46.1995Z" fill="white"/>
<path d="M268.922 48.3231L268.44 47.5284V47.6409C267.902 46.9376 267.434 46.5192 266.984 46.3926L267.494 46.2273C268.9 45.7807 270.335 45.32 270.335 43.2558C270.335 41.5714 269.495 39.5635 265.507 39.5635C265.335 39.5635 265.155 39.5635 264.983 39.5635H260.763V40.3336H261.023C261.769 40.3336 262.251 41.3885 262.251 43.0272V49.2902C262.251 50.9359 261.769 52.0014 261.023 52.0014H260.763V52.7716H265.233V52.019H264.972C264.238 52.019 263.745 50.9289 263.745 49.3078V43.0378C263.745 41.4026 264.227 40.3441 264.972 40.3441C267.434 40.3441 268.573 41.269 268.573 43.2558C268.573 44.6413 267.824 44.993 266.689 45.524C265.846 45.8686 265.074 46.3643 264.41 46.9869C264.058 47.3385 263.467 47.9293 263.998 48.5166C264.06 48.5934 264.137 48.6557 264.225 48.6989C264.313 48.7421 264.41 48.7651 264.508 48.7662C264.895 48.7662 265.236 48.4146 265.486 48.1473L266.154 47.444C266.223 47.3623 266.303 47.2912 266.393 47.233C266.618 47.2682 267.353 48.5728 267.67 49.1355L268.194 50.004C269.002 51.386 268.967 51.7623 268.897 51.8748C268.897 51.8995 268.851 51.9663 268.598 51.9874H267.722V52.7716H272.188V52.0682L272.006 52.012C271.534 51.8713 270.247 50.6335 268.893 48.3231M265.433 47.1029L265.412 47.1275C265.354 47.1858 265.286 47.2334 265.212 47.2682C265.285 47.2084 265.359 47.1521 265.433 47.1029Z" fill="white"/>
<path d="M285.848 52.0116C285.416 51.885 284.185 50.7703 282.736 48.3228L282.321 47.6194C281.288 45.8823 280.493 45.1051 279.744 45.1051C279.536 45.1177 279.334 45.1763 279.151 45.2767C278.969 45.377 278.811 45.5166 278.689 45.6854L278.513 45.8647C278.45 45.9264 278.378 45.9775 278.299 46.0159C278.328 45.9609 278.365 45.91 278.407 45.8647L282.051 42.0598C282.814 41.2616 283.841 40.3473 285.015 40.3473H285.275V39.5771H280.806V40.3473H281.066C281.91 40.3473 282.026 40.5196 282.04 40.5548C282.054 40.5899 282.114 40.9064 281.168 41.8664L277.483 45.7346C277.357 45.8531 277.24 45.98 277.131 46.1144V43.0409C277.131 41.4058 277.613 40.3473 278.358 40.3473H278.618V39.5771H274.138V40.3473H274.399C275.144 40.3473 275.626 41.4022 275.626 43.0409V49.2898C275.626 50.9355 275.144 52.001 274.399 52.001H274.138V52.7712H278.608V52.0186H278.348C277.613 52.0186 277.12 50.9285 277.12 49.3074V47.3205C277.243 47.4449 277.41 47.5157 277.585 47.5175C277.951 47.4537 278.281 47.2586 278.513 46.9689L278.573 46.9126L279.223 46.2093C279.283 46.1496 279.42 46.0054 279.466 45.9983C279.695 46.0229 280.447 47.3698 280.735 47.8832L281.259 48.7729C282.546 50.9355 282.339 51.6459 282.244 51.8147C282.216 51.8604 282.135 52.0046 281.826 52.0046H281.569V52.7712H286.035V52.0679L285.848 52.0116Z" fill="white"/>
<path d="M129.092 32.1375C129.344 32.1357 129.594 32.0793 129.823 31.9723C130.716 31.5679 130.878 30.4637 131.012 29.4896C131.145 28.5155 131.268 27.9283 131.74 27.879H131.785C132.137 27.879 132.489 28.294 132.798 29.043L132.995 29.5845C133.477 30.8259 133.287 31.2514 133.216 31.3428C133.192 31.3804 133.158 31.4106 133.118 31.4304C133.077 31.4502 133.033 31.4588 132.988 31.4553H132.812V31.9898H135.573V31.4553H135.397C134.908 31.4553 134.634 30.8786 134.089 29.4615L131.275 22.1084L130.477 22.5691L129.879 22.9207L130.118 23.3286H130.231H130.291C130.379 23.3286 130.403 23.3568 130.41 23.3673C130.417 23.3779 130.502 23.5431 130.449 23.937C130.242 24.8724 129.447 25.9977 128.747 26.9929C128.501 27.3445 128.269 27.6716 128.075 27.974C127.316 29.1907 127.161 30.3863 127.646 31.2584C127.784 31.5234 127.991 31.7458 128.246 31.9019C128.501 32.058 128.793 32.1419 129.092 32.1446M129.229 27.2214C129.932 26.2403 130.674 25.1537 130.931 24.1656L132.179 27.4184C132.053 27.3639 131.916 27.3364 131.778 27.3375H131.683C130.773 27.4289 130.572 28.2518 130.382 29.05C130.213 29.7533 130.031 30.4566 129.405 30.7591C129.252 30.8326 129.085 30.8734 128.916 30.8786C128.77 30.8768 128.627 30.8349 128.503 30.7574C128.379 30.6798 128.278 30.5697 128.212 30.4391C127.984 30.0206 127.928 29.1942 128.525 28.2483C128.726 27.9318 128.969 27.5871 129.229 27.2179" fill="white"/>
<path d="M152.124 22.7675H152.304C153.007 22.7675 153.499 22.7675 153.499 24.786V29.0551C153.007 28.0001 152.244 27.3144 151.498 26.6639C150.595 25.8726 149.74 25.1271 149.409 23.6994V23.6748C149.365 23.543 149.348 23.4034 149.36 23.2648C149.372 23.1262 149.413 22.9916 149.48 22.8695C149.537 22.8122 149.606 22.7685 149.682 22.7417C149.758 22.7149 149.839 22.7057 149.919 22.7148H150.099V22.1768H146.804V22.7253H146.983C147.686 22.7253 148.179 22.7253 148.179 24.7438V29.4454C148.179 31.4745 147.651 31.4745 146.983 31.4745H146.804V32.009H150.102V31.4745H149.923C149.255 31.4745 148.727 31.4745 148.727 29.4454V25.0462C149.2 25.9225 149.856 26.6865 150.651 27.2863C151.632 28.1338 152.557 28.9355 152.856 30.6199C152.888 30.7379 152.895 30.8612 152.878 30.9822C152.86 31.1031 152.818 31.2192 152.754 31.3232C152.694 31.3791 152.624 31.4215 152.547 31.4476C152.47 31.4736 152.388 31.4828 152.307 31.4745H152.128V32.009H155.426V31.4745H155.243C154.568 31.4745 154.037 31.4745 154.037 29.4454V24.786C154.037 22.7675 154.544 22.7675 155.243 22.7675H155.426V22.2225H152.128L152.124 22.7675Z" fill="white"/>
<path d="M170.365 31.9865C171.598 31.8673 172.741 31.2873 173.566 30.3622C174.39 29.4372 174.836 28.2353 174.813 26.9963C174.791 25.7573 174.301 24.5724 173.444 23.6781C172.586 22.7838 171.422 22.246 170.185 22.1719H166.496V22.7099H166.679C167.235 22.7099 167.608 23.5293 167.608 24.753V29.423C167.608 30.6537 167.256 31.452 166.679 31.452H166.496V32.0006H170.189L170.365 31.9865ZM170.185 31.452H169.63C169.063 31.452 168.698 30.6537 168.698 29.423V24.7495C168.698 23.5082 169.049 22.7064 169.63 22.7064H170.178C172.19 22.7556 173.649 24.5948 173.649 27.0774C173.649 29.5601 172.19 31.4133 170.185 31.452Z" fill="white"/>
<path d="M192.136 29.4702L189.323 22.1172L188.525 22.5779L187.927 22.9295L188.166 23.3374H188.278H188.338C188.426 23.3374 188.451 23.3656 188.461 23.3761C188.472 23.3867 188.553 23.5519 188.496 23.9458C188.289 24.8812 187.494 26.0065 186.794 27.0016C186.552 27.3533 186.32 27.6803 186.123 27.9828C185.367 29.1995 185.208 30.3951 185.694 31.2672C185.832 31.5322 186.04 31.7545 186.296 31.9106C186.551 32.0667 186.843 32.1506 187.143 32.1534C187.394 32.1519 187.643 32.0955 187.87 31.9881C188.764 31.5837 188.925 30.4795 189.059 29.5054C189.193 28.5313 189.316 27.9441 189.787 27.8949H189.833C190.184 27.8949 190.536 28.3098 190.845 29.0588L191.046 29.6004C191.524 30.8417 191.334 31.2672 191.267 31.3586C191.242 31.3962 191.207 31.4264 191.167 31.4462C191.126 31.4659 191.081 31.4745 191.035 31.4712H190.863V32.0057H193.62V31.4712H193.444C192.955 31.4712 192.685 30.8944 192.136 29.4773M187.276 27.2337C187.979 26.2526 188.721 25.166 188.978 24.1779L190.227 27.4307C190.1 27.3762 189.963 27.3487 189.826 27.3498H189.741C188.83 27.4412 188.634 28.2641 188.44 29.0623C188.271 29.7656 188.088 30.4689 187.463 30.7714C187.31 30.8453 187.143 30.8861 186.974 30.8909C186.827 30.8903 186.684 30.8489 186.56 30.7712C186.435 30.6936 186.335 30.5828 186.27 30.4514C186.038 30.0329 185.982 29.2065 186.583 28.2606C186.78 27.9441 187.023 27.5995 187.287 27.2302" fill="white"/>
<path d="M211.898 29.4138L211.378 29.252L211.329 29.4314C211.009 30.6094 209.736 31.4639 208.297 31.4639H208.217C207.067 31.4639 206.87 30.8344 206.87 29.4278V24.7614C206.87 23.5341 207.221 22.7394 207.798 22.7394H207.977V22.1768H204.672V22.7289H204.851C205.414 22.7289 205.78 23.5236 205.78 24.7509V29.4173C205.78 30.6516 205.428 31.4534 204.851 31.4534H204.672V31.9879H211.195L211.898 29.4138Z" fill="white"/>
<path d="M230.09 24.7885C230.09 22.8052 230.607 22.8052 231.258 22.8052H231.434V22.2812H228.212V22.8052H228.388C229.039 22.8052 229.556 22.8052 229.556 24.7885V28.2277C229.556 28.2277 229.577 29.8312 228.726 30.6893C228.542 30.8741 228.323 31.0191 228.081 31.1153C227.839 31.2115 227.58 31.2568 227.319 31.2484C225.638 31.2484 224.823 30.2567 224.823 28.2136V27.7354C224.823 25.745 226.275 24.458 227.14 23.6879C227.653 23.2307 227.963 22.9564 227.843 22.6716C227.724 22.3867 227.235 22.2812 225.733 22.2812H222.688V22.8052H222.864C223.423 22.8052 223.768 23.5648 223.768 24.7885V24.9644H224.302V24.7885C224.302 22.8931 224.794 22.8052 225.733 22.8052C226.194 22.8052 226.574 22.8052 226.823 22.8052L226.778 22.8333C225.906 23.3643 223.884 24.5916 223.785 27.5525V28.2172C223.785 29.6238 224.2 32.0255 226.989 32.0255C228.434 32.0255 230.125 31.0269 230.125 28.2172L230.09 24.7885Z" fill="white"/>
<path d="M243.199 29.0212V29.095L242.963 30.3188L242.654 32.0384L243.171 32.1157L243.202 31.9504C243.297 31.4405 243.427 31.4405 243.508 31.4405C243.705 31.4663 243.897 31.5208 244.078 31.6023C244.707 31.8571 245.379 31.9919 246.058 31.9997C246.452 32.0161 246.845 31.9527 247.213 31.8131C247.582 31.6734 247.919 31.4606 248.203 31.1873C248.478 30.8843 248.689 30.5286 248.823 30.1419C248.957 29.7551 249.012 29.3452 248.984 28.9368C248.941 27.1785 247.577 26.7565 246.269 26.3592C245.094 26.0075 243.987 25.6734 243.744 24.4216C243.686 24.2031 243.677 23.9743 243.719 23.7522C243.761 23.53 243.853 23.3201 243.987 23.138C244.19 22.9319 244.436 22.7733 244.708 22.6736C244.98 22.5739 245.27 22.5355 245.558 22.5613C247.197 22.5613 247.806 23.8624 248.154 24.9912L248.203 25.1495L248.706 25.0334L247.936 21.8896L247.496 22.0233L247.468 22.1182C247.448 22.2144 247.416 22.3077 247.373 22.396L247.225 22.3398C246.699 22.1156 246.13 22.0088 245.558 22.0268C245.187 22.0158 244.817 22.08 244.471 22.2153C244.124 22.3507 243.809 22.5544 243.544 22.8145C243.3 23.0724 243.112 23.3774 242.992 23.7106C242.871 24.0438 242.819 24.3982 242.84 24.7521C242.911 26.3381 243.747 27.0343 244.757 27.4493C244.383 27.5558 244.043 27.7561 243.768 28.0313C243.494 28.3064 243.294 28.6472 243.188 29.0212M245.65 27.8326C245.806 27.8307 245.962 27.8484 246.114 27.8853C247.197 28.2089 248.017 28.5605 247.897 29.8581C247.795 30.9131 247.141 31.4652 246.058 31.4652C245.654 31.4712 245.255 31.3731 244.899 31.1803C244.544 30.9876 244.244 30.7066 244.029 30.3645C243.871 30.1387 243.774 29.8764 243.747 29.6026C243.719 29.3287 243.762 29.0524 243.871 28.7996C244.053 28.4937 244.315 28.2425 244.628 28.0724C244.941 27.9022 245.294 27.8194 245.65 27.8326Z" fill="white"/>
<path d="M266.244 31.4498H266.061C265.495 31.4498 265.132 30.6516 265.132 29.4208V24.7473C265.132 23.5236 265.505 22.7042 266.061 22.7042H266.244V22.1768H262.927V22.7148H263.107C263.673 22.7148 264.039 23.5166 264.039 24.7579V29.4208C264.039 30.6516 263.687 31.4498 263.107 31.4498H262.927V31.9984H266.244V31.4498Z" fill="white"/>
<path d="M279.223 32.1375C279.476 32.1357 279.725 32.0793 279.954 31.9723C280.844 31.5679 281.009 30.4637 281.143 29.4896C281.277 28.5155 281.396 27.9283 281.871 27.879H281.913C282.265 27.879 282.616 28.294 282.926 29.043L283.126 29.5845C283.605 30.8259 283.418 31.2514 283.348 31.3428C283.323 31.3801 283.289 31.4101 283.249 31.4299C283.209 31.4497 283.164 31.4585 283.119 31.4553H282.944V31.9898H285.707V31.4553H285.532C285.039 31.4553 284.769 30.8786 284.22 29.4615L281.407 22.1084L280.609 22.5691L280.011 22.9207L280.246 23.3286H280.359H280.419C280.507 23.3286 280.531 23.3568 280.542 23.3673C280.552 23.3779 280.633 23.5431 280.577 23.937C280.369 24.8724 279.578 25.9977 278.878 26.9929C278.632 27.3445 278.4 27.6716 278.203 27.974C277.447 29.1907 277.292 30.3863 277.774 31.2584C277.913 31.5231 278.121 31.7453 278.376 31.9013C278.631 32.0573 278.924 32.1414 279.223 32.1446M279.357 27.2214C280.06 26.2403 280.805 25.1537 281.059 24.1656L282.307 27.4184C282.182 27.364 282.046 27.3365 281.91 27.3375H281.839C280.925 27.4289 280.728 28.2518 280.535 29.05C280.366 29.7533 280.183 30.4566 279.561 30.7591C279.407 30.8331 279.239 30.8739 279.068 30.8786C278.922 30.8776 278.779 30.836 278.654 30.7584C278.53 30.6808 278.43 30.5702 278.365 30.4391C278.133 30.0206 278.077 29.1942 278.678 28.2483C278.878 27.9318 279.121 27.5836 279.381 27.2179" fill="white"/>
<path d="M263.311 61.36V61.9121C264.014 62.0246 264.538 62.1793 264.538 62.8545C264.538 64.2611 264.538 65.6325 264.538 66.6523C264.538 67.8585 264.591 69.0612 264.57 70.2673C264.57 71.4172 264.707 73.0806 263.684 73.8472C262.833 74.4836 261.574 74.8318 260.519 74.4731C260.056 74.3376 259.651 74.0532 259.367 73.6641C259.083 73.2749 258.935 72.8028 258.947 72.321C258.894 71.0832 258.89 69.8207 258.894 68.5935C258.915 68.3121 258.943 68.0308 258.94 67.746C258.94 67.1025 259.421 66.8528 259.935 66.8141L260.09 66.269H256.2L256.281 66.8141C256.985 66.9266 257.431 67.0814 257.428 67.753C257.428 68.9451 257.428 70.1056 257.428 71.0515C257.428 71.5262 257.396 72.0045 257.35 72.4581C257.326 73.0173 257.091 73.5464 256.691 73.9382C256.291 74.33 255.758 74.5552 255.198 74.568H255.107C253.978 74.568 253.134 73.819 252.902 72.6199C252.839 72.293 252.806 71.9611 252.803 71.6282C252.803 70.2779 252.803 68.8959 252.803 67.5948V67.5104C252.861 67.2995 252.989 67.1147 253.166 66.9867C253.343 66.8587 253.559 66.7953 253.777 66.8071L253.932 66.262H250.043L250.12 66.8071C250.824 66.9196 251.274 67.0743 251.27 67.746C251.27 69.5289 251.27 71.2344 251.302 72.2647C251.253 72.6461 251.151 73.0189 250.999 73.3724C250.845 73.736 250.584 74.0446 250.252 74.2584C249.92 74.4722 249.531 74.5813 249.136 74.5716H249.108C248.699 74.5904 248.296 74.4826 247.951 74.2629C247.607 74.0432 247.339 73.7223 247.184 73.3443C246.996 72.9254 246.892 72.4738 246.878 72.015C246.853 70.9882 246.853 69.9438 246.857 68.9275C246.857 68.5337 246.924 68.1398 246.924 67.746C246.924 67.1025 247.406 66.8528 247.919 66.8141L248.074 66.269H244.177L244.255 66.8141C244.958 66.9266 245.408 67.0814 245.405 67.753C245.405 68.6919 245.405 69.6097 245.405 70.4221C245.405 70.8546 245.405 71.2871 245.38 71.7161C245.355 72.3097 245.221 72.8937 244.986 73.4392C244.83 73.7908 244.573 74.0884 244.249 74.2948C243.924 74.5012 243.546 74.6073 243.161 74.5997C242.783 74.5982 242.41 74.5027 242.078 74.3219C241.71 74.1366 241.401 73.8519 241.187 73.5001C240.972 73.1483 240.861 72.7435 240.865 72.3315C240.826 71.15 240.826 69.9438 240.826 68.7799C240.826 68.6005 240.826 68.4282 240.826 68.2418C240.826 68.0554 240.847 67.9113 240.847 67.746C240.847 67.1025 241.329 66.8528 241.842 66.8141L241.997 66.269H238.108L238.185 66.8141C238.888 66.9266 239.339 67.0814 239.335 67.753C239.335 69.0612 239.335 70.3306 239.335 71.3188C239.335 71.6704 239.296 72.0221 239.254 72.3491C239.17 73.0735 238.983 73.5061 238.199 73.8542C237.099 74.3105 235.916 74.5366 234.725 74.5188C233.86 74.5318 232.998 74.4133 232.168 74.1672C230.53 73.6432 230.445 72.0291 230.368 70.6084C230.368 70.4994 230.368 70.3974 230.368 70.292C230.347 69.4901 230.089 68.7125 229.627 68.0572C229.164 67.4019 228.518 66.8983 227.769 66.6101C227.026 66.2925 226.225 66.1355 225.417 66.1495C225.146 66.1495 224.858 66.1495 224.559 66.1917C223.583 66.2856 222.662 66.6823 221.924 67.3262C221.185 67.97 220.667 68.8287 220.441 69.7821C220.221 70.6972 220.299 71.6589 220.666 72.526C221.032 73.393 221.667 74.1198 222.477 74.5997C223.32 75.0986 224.282 75.361 225.262 75.3593C226.039 75.3666 226.809 75.2046 227.518 74.8846C228.227 74.5645 228.857 74.0942 229.366 73.506L229.443 73.4146C229.615 73.7874 230.21 74.1426 230.811 74.4696C230.938 74.5399 231.05 74.6032 231.106 74.6419C232.059 75.2925 233.445 75.4296 234.44 75.4296C236.743 75.4296 239.307 74.7263 240.067 73.9034C240.436 74.3459 240.898 74.7022 241.42 74.9475C241.941 75.1928 242.51 75.3211 243.087 75.3235C243.663 75.3258 244.233 75.2021 244.757 74.9611C245.281 74.7201 245.745 74.3675 246.118 73.928C246.441 74.3904 246.877 74.7624 247.384 75.0086C247.891 75.2548 248.453 75.3671 249.016 75.3346H249.086C249.667 75.3452 250.242 75.22 250.766 74.9691C251.29 74.7182 251.748 74.3485 252.104 73.8894C252.471 74.3506 252.94 74.7216 253.473 74.9739C254.007 75.2263 254.591 75.3533 255.181 75.3452C255.761 75.3512 256.335 75.2248 256.859 74.9756C257.383 74.7264 257.843 74.3609 258.205 73.9069C259.017 74.9302 260.666 75.3135 261.929 75.3135C262.31 75.3151 262.69 75.281 263.065 75.2116C263.738 75.1134 264.363 74.803 264.848 74.3255C265.333 73.8481 265.653 73.2284 265.762 72.5566C265.848 72.1995 265.896 71.8339 265.902 71.4665C265.902 69.4515 265.902 67.4049 265.924 65.4251C265.924 65.0734 265.924 64.6866 265.924 64.3209L265.941 64.2681C265.941 63.7899 266.015 63.3116 266.015 62.8369C266.015 62.1934 266.574 61.9402 267.088 61.9015L267.165 61.3564L263.311 61.36ZM228.849 71.3258C228.814 71.6677 228.753 72.0063 228.666 72.3386C228.542 72.8982 228.25 73.4066 227.829 73.7956C227.407 74.1846 226.878 74.4358 226.31 74.5153C226.055 74.5579 225.798 74.5802 225.54 74.5821C225.025 74.598 224.515 74.49 224.051 74.2672C223.587 74.0445 223.183 73.7135 222.874 73.3021C222.315 72.6314 221.968 71.8092 221.878 70.9405C221.788 70.0719 221.958 69.196 222.368 68.4247C222.638 67.918 223.045 67.4973 223.542 67.2107C224.039 66.924 224.607 66.783 225.181 66.8035C225.753 66.7949 226.319 66.9243 226.831 67.1807C227.343 67.4372 227.785 67.8132 228.121 68.277C228.626 69.0446 228.897 69.9426 228.902 70.8616C228.877 71.0164 228.859 71.1711 228.838 71.3258" fill="white"/>
<path d="M282.972 62.996L281.889 62.894L281.945 63.6817C281.945 63.636 285.578 63.636 285.849 63.6255L285.497 62.7077C285.497 62.7077 284.576 62.8483 284.47 62.8518C284.161 62.8773 283.851 62.806 283.584 62.6479C283.092 62.3525 282.698 61.7265 283.232 61.2659C283.767 60.8052 284.6 60.9142 285.201 60.9142L285.592 60.0562C285.42 60.0738 282.248 59.7467 282.054 61.3608C281.973 62.036 282.29 62.5248 282.947 63.0136" fill="white"/>
<path d="M279.631 64.8377C279.733 64.8416 279.835 64.8244 279.931 64.7872C280.026 64.7499 280.113 64.6934 280.185 64.6211C280.258 64.5488 280.315 64.4624 280.353 64.3672C280.39 64.2719 280.408 64.1699 280.404 64.0676C280.388 63.8735 280.298 63.693 280.153 63.5628C280.008 63.4326 279.819 63.3623 279.625 63.3664C279.43 63.3704 279.244 63.4484 279.105 63.5845C278.966 63.7206 278.883 63.9047 278.875 64.0992C278.875 64.1977 278.894 64.2952 278.933 64.3859C278.971 64.4767 279.027 64.5589 279.097 64.6277C279.168 64.6965 279.251 64.7506 279.343 64.7866C279.434 64.8227 279.532 64.84 279.631 64.8377Z" fill="white"/>
<path d="M224.491 65.1543C224.694 65.1543 224.889 65.0735 225.033 64.9298C225.177 64.786 225.258 64.591 225.258 64.3877C225.258 64.1844 225.177 63.9894 225.033 63.8456C224.889 63.7019 224.694 63.6211 224.491 63.6211C224.288 63.6211 224.093 63.7019 223.949 63.8456C223.805 63.9894 223.724 64.1844 223.724 64.3877C223.724 64.591 223.805 64.786 223.949 64.9298C224.093 65.0735 224.288 65.1543 224.491 65.1543Z" fill="white"/>
<path d="M226.211 65.1611C226.365 65.1646 226.517 65.1217 226.646 65.0381C226.776 64.9545 226.877 64.834 226.937 64.6922C226.997 64.5504 227.014 64.3937 226.984 64.2425C226.954 64.0913 226.88 63.9526 226.77 63.8441C226.661 63.7357 226.521 63.6626 226.37 63.6342C226.218 63.6059 226.062 63.6236 225.921 63.6852C225.779 63.7467 225.66 63.8493 225.578 63.9795C225.495 64.1097 225.454 64.2616 225.459 64.4156C225.463 64.6131 225.544 64.8012 225.684 64.9402C225.825 65.0793 226.014 65.1585 226.211 65.1611Z" fill="white"/>
<path d="M232.495 76.3606C232.392 76.3581 232.29 76.3766 232.195 76.4148C232.1 76.4531 232.014 76.5103 231.941 76.583C231.869 76.6557 231.812 76.7424 231.774 76.8377C231.736 76.9331 231.718 77.0352 231.721 77.1377C231.723 77.2367 231.745 77.3343 231.785 77.4248C231.825 77.5153 231.883 77.5969 231.955 77.6647C232.027 77.7325 232.112 77.7853 232.204 77.8198C232.297 77.8543 232.396 77.8699 232.495 77.8656C232.694 77.8656 232.886 77.7863 233.027 77.6452C233.168 77.5041 233.247 77.3127 233.247 77.1131C233.247 76.9135 233.168 76.7221 233.027 76.581C232.886 76.4398 232.694 76.3606 232.495 76.3606Z" fill="white"/>
<path d="M234.221 76.3609C234.119 76.3571 234.018 76.3736 233.923 76.4094C233.828 76.4452 233.741 76.4995 233.668 76.5693C233.594 76.639 233.535 76.7227 233.494 76.8156C233.453 76.9084 233.431 77.0085 233.429 77.1099C233.429 77.3083 233.506 77.499 233.645 77.6406C233.784 77.7822 233.973 77.8632 234.171 77.8659C234.273 77.8728 234.375 77.8585 234.47 77.8239C234.566 77.7894 234.653 77.7354 234.727 77.6653C234.801 77.5952 234.859 77.5106 234.899 77.4168C234.938 77.3231 234.957 77.2221 234.956 77.1204C234.958 77.0222 234.94 76.9246 234.904 76.8333C234.868 76.7419 234.814 76.6585 234.746 76.5879C234.678 76.5173 234.596 76.4609 234.506 76.422C234.416 76.383 234.319 76.3622 234.221 76.3609Z" fill="white"/>
<path d="M277.777 66.8088C278.48 66.9213 279.004 67.0761 279.001 67.7477C279.001 68.982 279.001 70.1812 279.001 71.1447C279.001 71.6476 278.962 72.1504 278.902 72.6463C278.831 73.1687 278.568 73.6462 278.166 73.9869C277.764 74.3277 277.249 74.5077 276.722 74.4924C275.632 74.4924 273.944 73.8278 273.758 72.6638C273.657 72.0693 273.621 71.4657 273.649 70.8634C273.685 70.269 273.599 69.6735 273.396 69.1136C273.193 68.5536 272.879 68.041 272.471 67.6071C271.556 66.6471 270.241 66.1407 268.666 66.1407C268.352 66.1394 268.038 66.1594 267.727 66.2005C267.737 66.43 267.76 66.6589 267.794 66.8862C267.868 66.8862 268.251 66.8405 268.469 66.8405C269.049 66.814 269.626 66.9444 270.138 67.2179C270.651 67.4914 271.08 67.8979 271.381 68.3948C271.845 69.0917 272.105 69.9045 272.132 70.7416C272.159 71.5786 271.951 72.4064 271.532 73.1315C271.31 73.5695 270.97 73.9362 270.549 74.1893C270.129 74.4425 269.645 74.5719 269.155 74.5627H269.039C268.686 74.5554 268.334 74.5296 267.984 74.4854L267.421 74.4291H267.27L267.312 75.2415H267.421C267.771 75.2888 268.123 75.3135 268.476 75.3153C269.308 75.3437 270.135 75.1713 270.887 74.8126C271.639 74.454 272.293 73.9195 272.794 73.2546C273.462 74.5381 275.302 75.3329 276.641 75.3329C276.779 75.3339 276.916 75.3257 277.053 75.3083C279.033 75.0375 280.056 74.0915 280.267 72.3298C280.397 71.2748 280.499 68.2119 280.499 67.7337C280.499 67.0901 281.132 66.837 281.649 66.8018V66.2567H277.76L277.777 66.8088Z" fill="white"/>
<path d="M284.714 65.9496C284.714 65.3061 285.273 65.0564 285.769 65.0177L285.847 64.4727H281.957V65.0177C282.661 65.1302 283.185 65.285 283.185 65.9566C283.185 67.5602 283.185 69.0547 283.209 69.9901C283.209 71.2173 283.209 72.4517 283.209 73.7668C283.209 73.8301 283.209 73.8969 283.209 73.9638C283.209 74.4877 283.23 74.8992 282.548 75.0187L282.569 75.2965H285.618L285.667 75.0257C284.669 74.6741 284.669 74.6741 284.669 73.7281V72.7681C284.669 70.5738 284.693 66.143 284.693 65.9601" fill="white"/>
<path d="M149.24 71.5731C148.92 70.9392 148.396 70.4314 147.752 70.1313C146.845 69.784 145.88 69.6099 144.908 69.6179C140.832 69.435 136.749 69.6179 132.667 69.5863C131.649 69.6306 130.63 69.5119 129.649 69.2346C128.876 68.9709 128.077 68.3273 128.172 67.515C128.209 67.293 128.296 67.0823 128.427 66.8994C128.558 66.7164 128.73 66.5661 128.928 66.4601C129.327 66.2529 129.762 66.124 130.209 66.0803C131.466 65.9249 132.733 65.8661 133.999 65.9045L141.915 65.9326C142.907 65.9326 143.937 65.9326 144.827 65.5001C145.766 64.9847 146.499 64.1613 146.901 63.1686L146.676 63.0244C145.083 64.2798 142.889 64.3431 140.86 64.3502C138.416 64.3502 135.972 64.3677 133.528 64.3502C132.185 64.3291 130.796 64.308 129.551 64.8179C128.306 65.3278 127.237 66.5304 127.328 67.8737C127.413 69.0799 128.408 70.0716 129.537 70.5146C130.666 70.9577 131.907 70.9612 133.117 70.9577H143.543C144.795 70.9012 146.048 71.0196 147.267 71.3094C147.704 71.398 148.096 71.6369 148.375 71.9845C148.8 72.6316 148.375 73.5635 147.728 73.9643C147.081 74.3652 146.247 74.3863 145.47 74.3934C140.057 74.4332 134.645 74.4238 129.234 74.3652C128.878 74.3396 128.521 74.3801 128.179 74.4848C128.007 74.5416 127.854 74.6449 127.737 74.7833C127.619 74.9216 127.543 75.0897 127.515 75.269H145.449C146.441 75.269 147.471 75.269 148.35 74.7978C149.69 74.0945 149.834 72.723 149.272 71.6118" fill="white"/>
<path d="M159.869 75.586C162.358 75.586 163.92 74.2779 164.141 71.9921C164.229 71.113 164.236 70.0581 164.243 69.3477V69.2915C164.243 68.8167 164.243 68.3385 164.243 67.8637C164.233 67.7399 164.25 67.6155 164.293 67.4987C164.335 67.382 164.402 67.2757 164.489 67.1871C164.576 67.0984 164.681 67.0294 164.797 66.9848C164.913 66.9402 165.037 66.9209 165.161 66.9284L165.316 66.3833H161.433L161.514 66.9284C162.218 67.0409 162.664 67.1956 162.661 67.8708C162.661 68.3174 162.661 68.7605 162.685 69.193C162.685 69.2352 162.685 69.2809 162.685 69.3266C162.682 69.3875 162.682 69.4486 162.685 69.5095V70.0616C162.688 70.8391 162.648 71.6163 162.566 72.3895C162.494 73.0281 162.196 73.6199 161.726 74.0579C161.256 74.4958 160.644 74.751 160.002 74.7773H159.89C158.733 74.7773 157.734 73.8594 157.463 72.5442C157.359 72.0421 157.306 71.5308 157.305 71.0181C157.305 69.2598 157.305 67.8919 157.305 66.545C157.305 65.1982 157.305 64.4914 157.305 62.6769C157.307 62.6664 157.307 62.6557 157.305 62.6452C157.364 62.461 157.482 62.3012 157.641 62.1907C157.8 62.0801 157.991 62.0249 158.184 62.0334L158.339 61.4883H154.436L154.513 62.0334C155.216 62.1459 155.663 62.3006 155.663 62.9723V63.1481C155.659 63.1961 155.659 63.2443 155.663 63.2923C155.675 63.5042 155.675 63.7168 155.663 63.9288C155.663 64.4492 155.663 64.8255 155.663 65.8347C155.663 66.2743 155.663 66.7139 155.663 67.1499C155.663 68.6268 155.663 70.1495 155.779 71.6475C155.937 74.0739 157.491 75.5825 159.837 75.5896L159.869 75.586Z" fill="white"/>
<path d="M150.358 64.5949C151.062 64.7074 151.512 64.8621 151.508 65.5338C151.508 68.3751 151.948 70.9774 151.441 73.3264C150.826 76.1818 148.881 77.1137 148.881 77.1137C148.881 77.1137 149.936 78.1511 149.971 78.1265C150.861 77.2333 151.797 76.333 152.38 75.1972C153.045 73.9102 153.084 72.4332 153.084 71.0125V70.907C153.084 69.5919 153.084 68.252 153.084 66.958C153.084 66.4797 153.084 66.005 153.084 65.5268C153.074 65.4032 153.092 65.2791 153.134 65.1628C153.177 65.0465 153.244 64.9407 153.331 64.8524C153.418 64.7642 153.523 64.6955 153.638 64.6511C153.754 64.6067 153.878 64.5875 154.001 64.5949L154.156 64.0498H150.267L150.358 64.5949Z" fill="white"/>
<path d="M160.79 76.0509C160.672 76.049 160.556 76.0708 160.447 76.1151C160.338 76.1594 160.239 76.2252 160.156 76.3087C160.074 76.3921 160.008 76.4914 159.965 76.6006C159.922 76.7098 159.901 76.8266 159.904 76.9441C159.927 77.1636 160.032 77.3664 160.198 77.5123C160.364 77.6582 160.578 77.7367 160.799 77.7323C161.02 77.7279 161.231 77.6409 161.39 77.4884C161.55 77.336 161.647 77.1292 161.662 76.9089C161.656 76.6801 161.562 76.4623 161.398 76.3021C161.235 76.1419 161.015 76.0517 160.786 76.0509" fill="white"/>
<path d="M217.251 70.2899C217.252 69.5691 217.045 68.8634 216.655 68.2572C216.265 67.651 215.709 67.17 215.053 66.8718C214.327 66.5215 213.531 66.34 212.725 66.3408C212.325 66.3414 211.925 66.3814 211.533 66.4604C210.608 66.6349 209.763 67.1019 209.124 67.7926C208.485 68.4834 208.084 69.3613 207.981 70.2969C207.791 72.4068 208.86 74.2847 210.647 74.9317C211.281 75.1701 211.952 75.2963 212.63 75.3044C213.818 75.2954 214.962 74.8541 215.848 74.0631C216.382 75.8003 214.283 77.4355 214.283 77.4355L214.438 78.0579C214.652 77.9677 214.86 77.8632 215.06 77.7449C216.238 76.9607 217.089 75.6666 217.17 74.6293C217.281 73.1879 217.304 71.7411 217.24 70.2969M215.739 71.3062C215.714 71.5418 215.693 71.7844 215.647 72.0095C215.405 73.3106 214.687 74.1194 213.513 74.369C213.282 74.4227 213.046 74.4487 212.809 74.4464C212.29 74.4508 211.778 74.3243 211.321 74.0784C210.864 73.8325 210.476 73.4753 210.193 73.0398C209.783 72.4122 209.535 71.692 209.474 70.9446C209.413 70.1972 209.539 69.4463 209.841 68.7602C210.068 68.2595 210.439 67.8381 210.907 67.5504C211.376 67.2627 211.919 67.1219 212.468 67.1461C212.928 67.1396 213.384 67.236 213.802 67.4283C214.22 67.6206 214.59 67.9038 214.884 68.2573C215.476 69.0341 215.781 69.9923 215.746 70.9686L215.714 71.2991" fill="white"/>
<path d="M202.995 76.0371C202.775 76.0614 202.573 76.1671 202.427 76.3335C202.282 76.4999 202.204 76.7147 202.209 76.9356C202.215 77.1565 202.303 77.3674 202.456 77.5266C202.609 77.6858 202.817 77.7817 203.037 77.7954C203.257 77.7711 203.459 77.6654 203.605 77.499C203.75 77.3327 203.828 77.1178 203.823 76.8969C203.817 76.676 203.729 76.4651 203.576 76.3059C203.423 76.1467 203.216 76.0508 202.995 76.0371Z" fill="white"/>
<path d="M204.998 76.0372C204.823 76.0345 204.651 76.0836 204.504 76.1784C204.357 76.2731 204.241 76.4093 204.171 76.5697C204.102 76.7302 204.081 76.9077 204.112 77.0799C204.143 77.2521 204.224 77.4113 204.345 77.5374C204.466 77.6635 204.622 77.7509 204.793 77.7886C204.964 77.8263 205.142 77.8126 205.305 77.7492C205.468 77.6858 205.609 77.5755 205.709 77.4323C205.81 77.2891 205.866 77.1194 205.87 76.9445C205.874 76.8273 205.854 76.7105 205.812 76.6011C205.77 76.4916 205.706 76.3916 205.625 76.3071C205.544 76.2226 205.446 76.1551 205.339 76.1088C205.231 76.0624 205.115 76.0381 204.998 76.0372Z" fill="white"/>
<path d="M186.972 76.0371C186.753 76.0614 186.55 76.1671 186.405 76.3335C186.259 76.4999 186.182 76.7147 186.187 76.9356C186.192 77.1565 186.28 77.3674 186.434 77.5266C186.587 77.6858 186.794 77.7817 187.015 77.7954C187.234 77.7711 187.437 77.6654 187.582 77.499C187.728 77.3327 187.805 77.1178 187.8 76.8969C187.795 76.676 187.707 76.4651 187.554 76.3059C187.4 76.1467 187.193 76.0508 186.972 76.0371Z" fill="white"/>
<path d="M188.978 76.0372C188.803 76.0345 188.631 76.0836 188.484 76.1784C188.337 76.2731 188.221 76.4093 188.151 76.5697C188.081 76.7302 188.061 76.9077 188.092 77.0799C188.122 77.2521 188.204 77.4113 188.325 77.5374C188.446 77.6635 188.602 77.7509 188.773 77.7886C188.944 77.8263 189.122 77.8126 189.285 77.7492C189.448 77.6858 189.589 77.5755 189.689 77.4323C189.79 77.2891 189.846 77.1194 189.85 76.9445C189.853 76.8273 189.834 76.7105 189.792 76.6011C189.75 76.4916 189.686 76.3916 189.605 76.3071C189.524 76.2226 189.426 76.1551 189.319 76.1088C189.211 76.0624 189.095 76.0381 188.978 76.0372Z" fill="white"/>
<path d="M194.664 65.0789C194.839 65.0816 195.011 65.0324 195.158 64.9375C195.305 64.8426 195.421 64.7062 195.491 64.5456C195.56 64.385 195.581 64.2073 195.55 64.035C195.518 63.8627 195.437 63.7034 195.315 63.5774C195.194 63.4514 195.037 63.3643 194.866 63.327C194.695 63.2897 194.517 63.3039 194.354 63.3678C194.191 63.4318 194.051 63.5426 193.95 63.6863C193.85 63.8299 193.795 64 193.792 64.1751C193.788 64.292 193.808 64.4084 193.851 64.5175C193.893 64.6265 193.957 64.7261 194.038 64.8102C194.119 64.8944 194.216 64.9615 194.324 65.0076C194.431 65.0537 194.547 65.078 194.664 65.0789Z" fill="white"/>
<path d="M203.973 66.9297C204.676 67.0423 205.122 67.197 205.122 67.8686C205.122 68.9236 205.122 69.9363 205.122 70.8084C205.122 70.9878 205.122 71.1601 205.122 71.35C205.121 71.781 205.087 72.2112 205.02 72.637C204.963 73.1169 204.739 73.5612 204.386 73.8918C204.034 74.2224 203.576 74.4181 203.093 74.4445H203.041C202.119 74.4445 201.412 73.801 201.202 72.7636C201.093 72.1981 201.04 71.6234 201.043 71.0476C201.043 69.0818 201.043 67.0774 201.043 65.1398C201.043 64.8936 201.043 64.6475 201.043 64.4013C201.043 63.9231 201.117 63.4484 201.117 62.9701C201.117 62.3266 201.595 62.0769 202.109 62.0382L202.267 61.4932H198.378L198.455 62.0382C199.158 62.1508 199.605 62.3055 199.605 62.9771C199.605 64.5631 199.605 66.0858 199.63 67.1302C199.63 68.6141 199.63 70.1157 199.609 71.5997C199.595 72.2104 199.47 72.8134 199.239 73.379C199.107 73.7028 198.879 73.9789 198.587 74.1709C198.294 74.363 197.95 74.462 197.601 74.4551C197.305 74.454 197.013 74.3867 196.746 74.2582C196.372 74.0902 196.056 73.8145 195.838 73.4663C195.621 73.1181 195.512 72.7132 195.526 72.303C195.487 71.1917 195.487 70.0559 195.491 68.9623C195.491 68.797 195.491 68.6352 195.491 68.47C195.491 68.3047 195.519 68.0691 195.519 67.8721C195.519 67.2251 196.001 66.9754 196.514 66.9368L196.669 66.3917H192.727L192.786 66.4409L192.86 66.9332C193.564 67.0458 194.01 67.2005 194.007 67.8721C194.003 68.5438 194.007 69.1311 194.059 69.7183C194.112 70.3056 194.059 70.8964 194.014 71.4766C193.979 72.1674 193.821 72.8463 193.546 73.481C193.422 73.7705 193.215 74.0165 192.951 74.1875C192.686 74.3585 192.377 74.4468 192.062 74.441C191.729 74.437 191.402 74.3487 191.113 74.1843C190.774 73.9958 190.493 73.7175 190.302 73.38C190.111 73.0426 190.017 72.6589 190.03 72.2713C190.001 71.2902 189.998 70.2986 189.998 69.321V69.2999C189.998 68.8251 190.072 68.3469 190.072 67.8721C190.072 67.2251 190.553 66.9754 191.067 66.9368L191.222 66.3917H187.332L187.41 66.9368C188.036 67.0387 188.465 67.1724 188.542 67.6752C188.542 67.7667 188.542 67.8686 188.542 67.9882C188.542 68.3152 188.542 68.6458 188.542 68.9728C188.542 69.7887 188.542 70.6361 188.514 71.4625C188.475 72.0945 188.35 72.7181 188.141 73.3157C188.025 73.6643 187.798 73.965 187.494 74.1715C187.19 74.3781 186.827 74.4789 186.46 74.4586C186.11 74.4728 185.763 74.3819 185.465 74.1977C185.167 74.0135 184.931 73.7443 184.786 73.4247C184.582 72.9921 184.462 72.5241 184.435 72.0463C184.396 71.1144 184.403 70.1614 184.407 69.233V69.0185C184.407 68.6317 184.473 68.2484 184.473 67.8651C184.473 67.2181 184.952 66.9684 185.465 66.9297L185.623 66.3847H185.068H181.618L181.738 66.4796L181.804 66.9403C182.455 67.0458 182.891 67.1864 182.947 67.7491C182.947 68.0726 182.947 68.3961 182.947 68.7231C182.947 69.6832 182.947 70.6783 182.923 71.6489C182.887 72.2484 182.769 72.8402 182.571 73.4072C182.479 73.6868 182.307 73.9329 182.075 74.1145C181.844 74.296 181.563 74.4047 181.27 74.427C181.132 74.4447 180.994 74.4541 180.855 74.4551C179.747 74.4551 179.054 73.801 178.952 72.6617C178.836 71.3254 178.836 69.9504 178.84 68.6212V68.4102C178.84 68.2308 178.861 68.0585 178.861 67.8757C178.861 67.2286 179.343 66.9789 179.856 66.9403L180.011 66.3952H176.122L176.203 66.9403C176.906 67.0528 177.352 67.2075 177.349 67.8792C177.349 68.2977 177.349 68.7091 177.37 69.11V69.4792C177.37 70.3372 177.37 71.2375 177.342 72.1025C177.323 72.5018 177.234 72.8947 177.078 73.263C176.954 73.6182 176.72 73.9244 176.409 74.1364C176.098 74.3485 175.728 74.4552 175.352 74.441C174.979 74.4537 174.611 74.3474 174.303 74.1375C173.994 73.9276 173.761 73.625 173.635 73.2735C173.46 72.8246 173.362 72.3488 173.347 71.8669C173.319 70.8858 173.326 69.8836 173.347 68.9165C173.347 68.7407 173.347 68.5649 173.347 68.3926C173.347 68.2203 173.368 68.041 173.368 67.8792C173.368 67.2321 173.85 66.9825 174.363 66.9438L174.518 66.3987H170.629L170.706 66.9438C171.409 67.0563 171.86 67.211 171.856 67.8827C171.856 68.4594 171.856 69.0256 171.898 69.5636C171.898 70.4709 171.898 71.3922 171.853 72.2959C171.799 73.3073 171.508 74.2916 171.002 75.1689C170.411 76.1676 169.243 76.7444 168.139 76.9764C167.457 77.1401 166.743 77.1255 166.068 76.9342C165.892 76.878 164.774 76.5228 164.907 76.2309C164.703 76.6881 164.524 77.1523 164.366 77.6376C164.31 77.8099 165.544 77.9083 165.66 77.9189C167.133 78.0455 168.519 78.042 169.824 77.2402C170.854 76.588 171.701 75.6839 172.285 74.6133C172.398 74.4129 172.51 74.2054 172.637 74.005C172.963 74.4131 173.377 74.7424 173.849 74.9683C174.32 75.1942 174.836 75.3109 175.359 75.3096C175.892 75.3131 176.419 75.1963 176.902 74.968C177.384 74.7397 177.808 74.4058 178.144 73.9909C178.77 74.8806 179.673 75.3166 180.904 75.3237H180.932C181.471 75.3491 182.007 75.2392 182.493 75.0039C182.978 74.7686 183.397 74.4155 183.71 73.9768C184.031 74.4098 184.454 74.757 184.941 74.9876C185.428 75.2182 185.964 75.3252 186.502 75.2991H186.524C187.058 75.3205 187.59 75.2112 188.073 74.9808C188.555 74.7505 188.975 74.4058 189.295 73.9768C189.602 74.3823 189.997 74.7131 190.45 74.9445C190.903 75.1759 191.402 75.3019 191.911 75.3131C192.895 75.3131 193.884 74.8525 194.777 73.9768C195.1 74.4133 195.525 74.7628 196.016 74.9942C196.507 75.2256 197.048 75.3315 197.59 75.3026C198.124 75.3225 198.656 75.2126 199.138 74.9823C199.621 74.752 200.04 74.4082 200.361 73.9804C200.671 74.3922 201.072 74.7258 201.534 74.9548C201.996 75.1838 202.504 75.3017 203.02 75.2991C203.335 75.2956 203.65 75.2603 203.958 75.1936C204.639 75.0806 205.26 74.7349 205.714 74.2154C206.168 73.6959 206.427 73.0348 206.448 72.3452C206.529 71.3605 206.557 70.3618 206.571 69.3807V69.3315C206.571 68.8568 206.645 68.3785 206.645 67.9038C206.645 67.2568 207.123 67.0071 207.64 66.9684L207.795 66.4233H203.906L203.973 66.9297Z" fill="white"/>
<path d="M79.4413 85H70.7379C62.5889 84.9916 54.776 81.751 49.0134 75.989C43.2508 70.2271 40.0093 62.4146 40 54.2655V45.738C40.0093 37.5886 43.2507 29.7757 49.0132 24.0132C54.7757 18.2508 62.5886 15.0093 70.7379 15H79.4413C87.5904 15.0093 95.403 18.2509 101.165 24.0134C106.927 29.776 110.167 37.5889 110.176 45.738V54.2515C110.166 62.3999 106.925 70.2119 101.164 75.9737C95.4018 81.7355 87.5898 84.9766 79.4413 84.9859M70.7379 17.4194C63.2297 17.4268 56.0311 20.4128 50.7219 25.7219C45.4128 31.0311 42.4268 38.2297 42.4194 45.738V54.2515C42.4277 61.7595 45.414 68.9575 50.7229 74.2665C56.0319 79.5755 63.2299 82.5617 70.7379 82.5701H79.4413C86.9484 82.5636 94.1466 79.5802 99.4572 74.2742C104.768 68.9681 107.757 61.7726 107.771 54.2655V45.738C107.762 38.23 104.776 31.0319 99.4669 25.7229C94.158 20.414 86.9599 17.4277 79.4519 17.4194H70.7379Z" fill="white"/>
<path d="M102.222 43.4021C101.937 42.7656 100.942 42.6988 100.355 42.5652C99.3153 42.3438 98.2507 42.2646 97.1899 42.3296C95.0874 42.463 93.0429 43.074 91.2118 44.116C87.85 46.0184 85.2935 49.12 83.4473 52.5135C81.6011 55.9069 80.402 59.6063 79.2275 63.2811C79.3822 53.7536 79.3822 44.225 79.2275 34.6952C79.2064 33.3097 79.3365 31.6429 80.5532 30.9818C80.942 30.7969 81.3617 30.686 81.791 30.6547C84.3965 30.3289 87.0413 30.5517 89.5555 31.3088C90.4487 31.5796 91.4122 32.0121 91.7709 32.8631C92.1789 33.8442 91.6197 34.9554 90.9446 35.7748C89.3129 37.7476 86.9814 38.9924 84.9981 40.61C83.0148 42.2276 81.253 44.5626 81.5273 47.1121C81.566 47.4426 81.6926 47.8154 82.0161 47.9103C82.3396 48.0053 82.6631 47.6431 82.8776 47.3442C84.2842 45.3925 86.3942 44.0773 88.4689 42.85C90.5437 41.6228 92.6888 40.3885 94.2395 38.5564C95.7903 36.7243 96.6448 34.0763 95.7341 31.8468C94.9745 29.9901 93.1283 28.7523 91.1942 28.2213C89.2601 27.6903 87.217 27.7571 85.2161 27.8274L77.4235 28.1088C76.576 28.1404 74.8248 27.7747 74.6595 28.7663C74.4942 29.758 75.1518 31.4495 75.2995 32.4939C76.0275 37.6069 76.14 42.7832 76.2525 47.9385L76.8538 75.0649C76.8376 75.1848 76.8499 75.3068 76.8896 75.421C76.9293 75.5353 76.9953 75.6386 77.0824 75.7225C77.3778 75.923 77.7646 75.6452 77.9862 75.3709C78.6738 74.4024 79.2109 73.3353 79.5791 72.206C80.9857 68.4926 82.3923 64.7779 83.799 61.0621C84.8539 58.2735 85.9089 55.4709 87.4421 52.9038C88.9753 50.3367 90.9586 47.9982 93.5644 46.5178C95.694 45.3492 98.0649 44.6885 100.492 44.5872C101.114 44.552 102.665 44.4501 102.222 43.4338" fill="white"/>
<path d="M64.2753 41.8033C66.9057 43.8148 71.449 44.2649 72.7677 47.6091C72.8133 47.7234 72.8922 47.8213 72.9941 47.8903C73.0959 47.9592 73.2161 47.9961 73.3391 47.9961C73.4621 47.9961 73.5824 47.9592 73.6842 47.8903C73.7861 47.8213 73.8649 47.7234 73.9106 47.6091C74.8073 44.7959 72.2402 42.2148 70.1866 40.8222C67.7953 39.2011 64.9364 38.0336 63.0515 35.7655C61.6766 34.1127 61.8032 32.154 61.0542 30.2691C60.8783 29.8296 60.6357 29.0665 60.0906 29.4041C59.5456 29.7417 59.637 31.1623 59.6229 31.6195C59.5966 32.9128 59.7409 34.2039 60.052 35.4595C60.6568 37.9563 61.9438 40.5022 64.2718 41.7893" fill="white"/>
<path d="M74.4028 62.3549C74.4275 47.051 71.2696 56.4682 71.9589 63.5329C70.3061 60.2098 69.3426 56.5878 67.6792 53.2717C65.601 49.1362 61.7011 45.1837 57.1613 43.8931C55.2692 43.353 53.2898 43.1881 51.3344 43.4078C50.5502 43.4922 48.4473 43.6505 47.9691 44.4628C47.5366 45.2013 48.7498 45.567 49.3757 45.4545C65.4779 42.6096 70.1795 75.6298 74.6068 75.8021C74.54 71.3291 74.6947 66.8138 74.3993 62.3549" fill="white"/>
</g>
<defs>
<filter id="filter0_b_0_535" x="-80" y="-80" width="1880" height="260" filterUnits="userSpaceOnUse" color-interpolation-filters="sRGB">
<feFlood flood-opacity="0" result="BackgroundImageFix"/>
<feGaussianBlur in="BackgroundImageFix" stdDeviation="40"/>
<feComposite in2="SourceAlpha" operator="in" result="effect1_backgroundBlur_0_535"/>
<feBlend mode="normal" in="SourceGraphic" in2="effect1_backgroundBlur_0_535" result="shape"/>
</filter>
</defs>
</svg>
