<svg width="20" height="20" viewBox="0 0 20 20" fill="none" xmlns="http://www.w3.org/2000/svg">
<g clip-path="url(#clip0_0_531)">
<path d="M20.2161 14.8098C17.3499 14.3375 16.0651 11.4083 16.0121 11.2839L16.0066 11.2722C15.9252 11.139 15.8739 10.9897 15.8562 10.8347C15.8385 10.6796 15.855 10.5226 15.9044 10.3746C16.0969 9.92096 16.7338 9.71887 17.1557 9.5849C17.2611 9.55151 17.3607 9.5199 17.4389 9.4889C18.2017 9.18763 18.3567 8.87574 18.353 8.667C18.3329 8.53681 18.2745 8.41555 18.1852 8.31873C18.0959 8.2219 17.9798 8.1539 17.8516 8.12342L17.8459 8.12129C17.7327 8.07578 17.6117 8.0526 17.4896 8.05305C17.3821 8.05121 17.2754 8.07238 17.1767 8.11512C16.8789 8.26573 16.5543 8.35616 16.2215 8.38124C16.0297 8.38582 15.8423 8.32311 15.6919 8.20399C15.7011 8.03407 15.7119 7.85877 15.7237 7.67353L15.7277 7.60823C15.92 6.26091 15.8381 4.88862 15.4868 3.57374C15.0727 2.62969 14.3897 1.82851 13.523 1.2702C12.6564 0.711889 11.6445 0.421176 10.6137 0.434343C10.4796 0.435743 10.3455 0.437004 10.2113 0.438124C9.18199 0.425409 8.17172 0.716185 7.30664 1.27415C6.44155 1.83211 5.76 2.63254 5.34706 3.5755C4.99582 4.88921 4.91375 6.26035 5.10579 7.60657C5.11873 7.80572 5.13073 8.00496 5.14179 8.20428C4.97607 8.33414 4.76798 8.39773 4.55799 8.38269C4.20464 8.36758 3.85873 8.27624 3.54399 8.11493C3.4668 8.08083 3.38305 8.06412 3.29869 8.06598C3.1249 8.05914 2.95332 8.10681 2.80797 8.20232C2.66262 8.29783 2.55077 8.4364 2.48808 8.59863C2.40617 9.02924 3.02098 9.34119 3.39476 9.48883C3.47376 9.5202 3.57298 9.55163 3.67784 9.58483C4.09953 9.71868 4.73692 9.92089 4.92936 10.3747C4.97872 10.5228 4.99515 10.6798 4.9775 10.8349C4.95984 10.99 4.90852 11.1393 4.82713 11.2725L4.82176 11.2841C4.54544 11.8857 4.1855 12.4452 3.75261 12.9462C2.96606 13.9245 1.853 14.5863 0.617776 14.8101C0.559403 14.8197 0.506645 14.8505 0.469644 14.8967C0.432644 14.9428 0.414014 15.001 0.417336 15.0601C0.41996 15.1048 0.430454 15.1487 0.448336 15.1898C0.624116 15.6009 1.50656 15.9404 3.00016 16.1708C3.1398 16.1924 3.19889 16.42 3.28043 16.793C3.31302 16.9422 3.34677 17.0972 3.39383 17.2572C3.40919 17.3281 3.45037 17.3908 3.50936 17.4331C3.56835 17.4753 3.64094 17.4942 3.71305 17.4859C3.85618 17.4779 3.99835 17.4576 4.13797 17.425C4.50612 17.3447 4.88153 17.3022 5.25833 17.2983C5.52901 17.2989 5.79918 17.3218 6.06613 17.3666C6.63015 17.5095 7.15478 17.7775 7.60113 18.1507C8.35444 18.7941 9.30115 19.1672 10.2908 19.2108C10.3246 19.2108 10.3583 19.2096 10.3909 19.2068C10.4321 19.2087 10.4861 19.2108 10.5428 19.2108C11.533 19.1669 12.4802 18.7936 13.2341 18.15C13.68 17.7771 14.2041 17.5094 14.7676 17.3667C15.0346 17.322 15.3048 17.2991 15.5756 17.2984C15.9521 17.3001 16.3274 17.3399 16.6959 17.4171C16.8357 17.4477 16.9779 17.4657 17.1209 17.4708H17.1443C17.212 17.4763 17.2794 17.4568 17.3338 17.4161C17.3882 17.3754 17.4259 17.3163 17.4398 17.2498C17.4862 17.092 17.5202 16.9418 17.5537 16.7885C17.6345 16.4175 17.6936 16.1909 17.8338 16.1692C19.3278 15.9385 20.2102 15.5995 20.3848 15.1907C20.403 15.1492 20.4137 15.1049 20.4165 15.0598C20.4198 15.0007 20.4011 14.9426 20.3641 14.8964C20.3271 14.8503 20.2744 14.8194 20.2161 14.8098Z" fill="white"/>
</g>
<defs>
<clipPath id="clip0_0_531">
<rect width="19.58" height="19.58" fill="white" transform="scale(1.02145)"/>
</clipPath>
</defs>
</svg>
