<svg width="20" height="20" viewBox="0 0 20 20" fill="none" xmlns="http://www.w3.org/2000/svg">
<g clip-path="url(#clip0_0_533)">
<path d="M18.5471 9.00794V5.51687C16.9122 5.51687 15.6645 5.08048 14.8594 4.2323C14.033 3.2643 13.57 2.03843 13.5502 0.765813V0.513817L10.2497 0.433915V14.6133C10.1364 15.232 9.83613 15.801 9.38927 16.2436C8.94241 16.6862 8.37052 16.981 7.7508 17.0882C7.13108 17.1955 6.49337 17.11 5.92377 16.8433C5.35416 16.5767 4.88009 16.1417 4.56555 15.5971C4.251 15.0524 4.11114 14.4244 4.16483 13.7978C4.21852 13.1711 4.46318 12.5761 4.86578 12.0929C5.26839 11.6097 5.80955 11.2617 6.41622 11.0958C7.02288 10.9299 7.66583 10.9542 8.25827 11.1653V7.78484C7.91285 7.72824 7.56344 7.69946 7.21341 7.69879C5.95403 7.69879 4.72294 8.07224 3.6758 8.77191C2.62867 9.47158 1.81253 10.4661 1.33059 11.6296C0.848644 12.7931 0.722546 14.0734 0.968238 15.3086C1.21393 16.5437 1.82038 17.6783 2.71089 18.5688C3.60141 19.4593 4.73599 20.0658 5.97117 20.3115C7.20635 20.5572 8.48664 20.4311 9.65015 19.9491C10.8137 19.4672 11.8081 18.6511 12.5078 17.6039C13.2075 16.5568 13.5809 15.3257 13.5809 14.0663C13.5802 13.8054 13.5638 13.5447 13.5318 13.2857V7.66191C15.0326 8.59918 16.7787 9.06781 18.5471 9.00794Z" fill="white"/>
</g>
<defs>
<clipPath id="clip0_0_533">
<rect width="19.58" height="19.58" fill="white" transform="scale(1.02145)"/>
</clipPath>
</defs>
</svg>
